<?xml version="1.0" encoding="UTF-8"?>
<svg version="1.1" xmlns="http://www.w3.org/2000/svg" width="512" height="512">
<path d="M0 0 C9.69242413 6.95288386 16.11995831 16.46391612 18.3125 28.3125 C19.20255131 42.86141557 16.76980464 53.93664943 7.56640625 65.5078125 C1.29219651 72.36900652 -6.61295146 76.49759029 -15.6875 78.3125 C-15.6875 95.1425 -15.6875 111.9725 -15.6875 129.3125 C-11.16675781 129.29155273 -6.64601563 129.27060547 -1.98828125 129.24902344 C12.98728159 129.18259503 27.96285042 129.13829701 42.93852234 129.10525131 C52.0137792 129.08469022 61.08889575 129.05669417 70.1640625 129.01074219 C78.08073434 128.97067559 85.99730447 128.94502039 93.9140749 128.93614602 C98.09985774 128.93096456 102.28534984 128.91892363 106.47103882 128.88957977 C110.42405159 128.86209595 114.37665844 128.85412022 118.32975769 128.86006927 C119.76791096 128.85898356 121.20608017 128.85122813 122.64414978 128.8356781 C141.27513734 128.64438222 157.31037554 133.04632072 171.09887695 146.0065918 C182.50888799 157.19497629 189.18496563 172.04000378 189.53955078 188.11962891 C189.53924116 189.7594742 189.52837038 191.39934604 189.5078125 193.0390625 C189.50356766 194.34960098 189.50356766 194.34960098 189.49923706 195.68661499 C189.48817303 198.43705814 189.46309581 201.18715774 189.4375 203.9375 C189.42745234 205.81900567 189.41832964 207.70051651 189.41015625 209.58203125 C189.38827912 214.15898357 189.35384719 218.73568385 189.3125 223.3125 C190.74468872 223.29292236 190.74468872 223.29292236 192.20581055 223.27294922 C193.46176025 223.26279785 194.71770996 223.25264648 196.01171875 223.2421875 C197.87703247 223.22260986 197.87703247 223.22260986 199.7800293 223.20263672 C208.92942354 223.4871918 216.38261053 227.84273355 223.0703125 233.90625 C231.40892456 242.78959551 231.91870649 253.21747817 231.84375 264.8125 C231.84645171 266.2988307 231.85033974 267.78515966 231.85534668 269.27148438 C231.86120996 272.37126664 231.85278259 275.47058466 231.83398438 278.5703125 C231.81119598 282.51758796 231.82433633 286.46377508 231.84827423 290.41101074 C231.86281899 293.47566738 231.8580869 296.54007154 231.84776306 299.60473633 C231.84511964 301.05900201 231.8482803 302.5132916 231.85768127 303.9675293 C231.92229808 316.76816484 229.79235563 325.67021825 220.828125 335.109375 C213.78465388 341.27788076 206.30850289 343.47926685 197.125 343.375 C196.37541016 343.37048828 195.62582031 343.36597656 194.85351562 343.36132812 C193.00647617 343.34956354 191.15947787 343.33162865 189.3125 343.3125 C189.3439209 345.04983398 189.3439209 345.04983398 189.37597656 346.82226562 C189.44942568 351.1982747 189.49467335 355.57423173 189.53222656 359.95068359 C189.55210682 361.83000914 189.57922087 363.70927483 189.61425781 365.58837891 C189.98675596 386.10864428 187.31595348 403.5897168 172.578125 419.03515625 C171.83046875 419.78667969 171.0828125 420.53820312 170.3125 421.3125 C169.70921875 421.95058594 169.1059375 422.58867187 168.484375 423.24609375 C164.42061523 427.21267666 159.95800211 429.70827385 154.875 432.125 C154.26640137 432.41528076 153.65780273 432.70556152 153.03076172 433.00463867 C145.44486995 436.41698102 137.89366341 437.6159969 129.62207031 437.55732727 C128.38274435 437.56072413 128.38274435 437.56072413 127.1183815 437.56418961 C124.37571546 437.56944711 121.6332795 437.56068588 118.890625 437.55200195 C116.91377694 437.55311589 114.93692921 437.55517534 112.96008301 437.55810547 C108.71551669 437.56281498 104.47100575 437.56172089 100.22644043 437.55632973 C93.51062045 437.54870193 86.79490651 437.55939525 80.07910156 437.5735321 C60.98632375 437.6112221 41.89359463 437.62945488 22.80078125 437.61791992 C12.24642294 437.61170072 1.69223644 437.6232956 -8.86207962 437.65436524 C-15.53416942 437.67300013 -22.20577178 437.66971995 -28.87785339 437.65019763 C-33.03236651 437.64330603 -37.18661641 437.65729205 -41.34107971 437.67714691 C-43.26269738 437.68218499 -45.1843596 437.67873313 -47.10594177 437.66601372 C-60.74764239 437.36410688 -60.74764239 437.36410688 -72.6875 443.3125 C-74.1062087 444.24315187 -75.52939193 445.16704146 -76.95825195 446.08203125 C-78.44993142 447.09266955 -79.93899327 448.10717932 -81.42578125 449.125 C-82.24884766 449.68345108 -83.07191406 450.24190216 -83.91992188 450.817276 C-85.69245915 452.02002931 -87.46396557 453.22430299 -89.23452759 454.42996216 C-93.99375952 457.66971033 -98.76193927 460.89620726 -103.53125 464.12109375 C-104.51958328 464.78942734 -105.50791656 465.45776093 -106.52619934 466.14634705 C-117.62781645 473.64119013 -128.80813969 481.01585282 -140 488.375 C-141.42706772 489.31339722 -141.42706772 489.31339722 -142.88296509 490.27075195 C-146.38709105 492.57440546 -149.89133395 494.8778749 -153.39746094 497.17848206 C-154.51229858 497.91009804 -154.51229858 497.91009804 -155.6496582 498.65649414 C-156.34173874 499.10993698 -157.03381927 499.56337982 -157.74687195 500.03056335 C-159.54131919 501.21593614 -161.31901311 502.42326369 -163.09619141 503.63427734 C-167.07771692 506.21285341 -169.01997804 505.97928885 -173.6875 505.3125 C-176.8547802 502.8140388 -178.48422626 501.32434978 -179.28877258 497.31950378 C-179.27766953 496.21141861 -179.26656647 495.10333344 -179.25512695 493.96166992 C-179.2547493 492.7007402 -179.25437164 491.43981049 -179.25398254 490.14067078 C-179.22845324 488.77475994 -179.20237333 487.40885931 -179.17578125 486.04296875 C-179.16644859 484.63765218 -179.15933461 483.23231928 -179.15434265 481.82698059 C-179.13530772 478.13911541 -179.08623971 474.45224449 -179.03082275 470.76477051 C-178.97955304 466.99761402 -178.9568123 463.23029589 -178.93164062 459.46289062 C-178.87811537 452.0789752 -178.79284782 444.69587724 -178.6875 437.3125 C-179.30183899 437.31725845 -179.91617798 437.32201691 -180.5491333 437.32691956 C-181.35695251 437.33062057 -182.16477173 437.33432159 -182.99707031 437.33813477 C-183.7970343 437.34289322 -184.59699829 437.34765167 -185.42120361 437.35255432 C-200.02114966 437.09451617 -212.80354025 428.32271471 -222.6875 418.3125 C-223.24953125 417.77238281 -223.8115625 417.23226563 -224.390625 416.67578125 C-238.55216241 401.88070138 -239.13931666 382.16545145 -238.875 363 C-238.85991845 361.08399495 -238.84623622 359.16797836 -238.83398438 357.25195312 C-238.80127091 352.60517831 -238.74968253 347.95897005 -238.6875 343.3125 C-239.7801416 343.32917725 -240.8727832 343.34585449 -241.99853516 343.36303711 C-243.44954072 343.37652665 -244.90055013 343.38960724 -246.3515625 343.40234375 C-247.42869507 343.42041077 -247.42869507 343.42041077 -248.52758789 343.43884277 C-258.70466417 343.50575894 -265.16965762 339.72749604 -272.484375 332.7578125 C-278.51872414 326.06011292 -280.78959696 319.66963039 -280.86450195 310.77490234 C-280.87107315 310.12713837 -280.87764435 309.47937439 -280.88441467 308.8119812 C-280.90407727 306.67413193 -280.91579725 304.53635284 -280.92578125 302.3984375 C-280.92985678 301.66437305 -280.9339323 300.93030861 -280.93813133 300.17399979 C-280.95896665 296.28511083 -280.97327675 292.39625685 -280.98266602 288.50732422 C-280.99369805 284.51291696 -281.02806739 280.51907173 -281.06783772 276.52486229 C-281.09413086 273.4345301 -281.10236923 270.34432898 -281.10594749 267.25389481 C-281.11078431 265.78284555 -281.12231432 264.31180099 -281.14098549 262.84086227 C-281.28605064 250.65039031 -279.62190064 241.42439506 -271.0390625 232.359375 C-263.22603024 225.55866253 -255.55821798 223.15482974 -245.375 223.25 C-244.12074219 223.25902344 -242.86648437 223.26804688 -241.57421875 223.27734375 C-240.14529297 223.29474609 -240.14529297 223.29474609 -238.6875 223.3125 C-238.70321045 222.17409668 -238.7189209 221.03569336 -238.73510742 219.86279297 C-238.79008475 215.57250256 -238.8240924 211.28224214 -238.85229492 206.99169922 C-238.86722913 205.14724463 -238.88758395 203.30282457 -238.91381836 201.45849609 C-239.1987301 180.88898562 -236.68806188 162.84723687 -221.94506836 147.37426758 C-208.70730082 134.14099733 -193.19268212 129.10278348 -174.79718018 129.06365967 C-173.39782618 129.07073472 -171.99847317 129.07800429 -170.59912109 129.08544922 C-169.10012825 129.0860144 -167.60113486 129.08569468 -166.10214233 129.08456421 C-162.06149167 129.08399387 -158.02096142 129.09569608 -153.98033857 129.10971212 C-149.74695933 129.12227309 -145.51357688 129.12339419 -141.28018188 129.12576294 C-133.27647988 129.13196201 -125.27283297 129.14835141 -117.26915514 129.16846192 C-108.15181305 129.19087005 -99.03446824 129.20182667 -89.91710544 129.21185279 C-71.17386611 129.23271914 -52.43070224 129.26937557 -33.6875 129.3125 C-33.6875 112.4825 -33.6875 95.6525 -33.6875 78.3125 C-36.9875 77.3225 -40.2875 76.3325 -43.6875 75.3125 C-46.97873068 73.65497717 -49.79189136 71.58568809 -52.6875 69.3125 C-53.30496094 68.83296875 -53.92242187 68.3534375 -54.55859375 67.859375 C-61.82763389 61.44837301 -67.26221897 50.50347625 -67.92578125 40.84375 C-68.30840151 26.98841543 -65.32576318 15.5475025 -55.6875 5.15625 C-40.32345499 -9.54933594 -17.82502146 -10.84607238 0 0 Z M-43.5625 19.0625 C-48.36226145 25.0983949 -50.37910454 30.99022683 -50.09375 38.73046875 C-48.90234047 46.3027928 -44.78354451 52.20910873 -38.84765625 56.90234375 C-32.59175535 60.98621396 -26.70462848 61.91373614 -19.328125 60.9453125 C-12.04105407 59.1990026 -6.87543848 54.35304678 -2.6875 48.3125 C0.95796947 41.8721706 1.3801024 35.81120194 -0.30859375 28.6953125 C-3.02429084 20.75340723 -7.87486716 16.58541573 -14.9375 12.375 C-25.6956105 9.32686869 -35.7676854 10.79576552 -43.5625 19.0625 Z M-211.8984375 163.890625 C-218.58798582 172.94634543 -221.00588344 182.63944449 -220.94819641 193.75495911 C-220.95202196 194.5545584 -220.95584751 195.3541577 -220.95978898 196.17798728 C-220.97002567 198.83072245 -220.96614473 201.48323738 -220.9621582 204.13598633 C-220.96650989 206.04885557 -220.97169455 207.96172308 -220.97764587 209.87458801 C-220.99099891 215.05240136 -220.99161859 220.23014155 -220.98908257 225.40796876 C-220.98801022 229.73922232 -220.99290306 234.07046123 -220.997688 238.40171164 C-221.0087707 248.62532223 -221.00922774 258.84889608 -221.00317383 269.07250977 C-220.99713624 279.59880892 -221.00944248 290.12497432 -221.0307439 300.65125066 C-221.04839206 309.70717969 -221.05435613 318.76306628 -221.05110615 327.81901187 C-221.04929807 333.21952019 -221.05188185 338.61993313 -221.06582069 344.0204258 C-221.07844656 349.10207583 -221.07641006 354.18351828 -221.06340981 359.26516533 C-221.06105471 361.12263689 -221.06374014 362.98012328 -221.07203293 364.83757782 C-221.13981382 381.20899075 -219.56771497 394.80387152 -208.1875 407.5 C-199.32893227 415.78704723 -189.76944985 418.72330915 -178.05078125 419.8671875 C-172.24095985 420.63643215 -168.33792177 422.57744122 -164.25 426.875 C-162.04516398 430.3145442 -161.55719212 432.97033412 -161.48217773 436.9675293 C-161.4522599 438.37865242 -161.4522599 438.37865242 -161.42173767 439.81828308 C-161.39666893 441.33715874 -161.39666893 441.33715874 -161.37109375 442.88671875 C-161.35031265 443.92568802 -161.32953156 444.96465729 -161.30812073 446.03511047 C-161.24269344 449.35667253 -161.18377179 452.67831416 -161.125 456 C-161.08180831 458.2506593 -161.03819381 460.50131052 -160.99414062 462.75195312 C-160.88701902 468.2720511 -160.78523984 473.79222837 -160.6875 479.3125 C-154.38402811 475.94578867 -148.42422768 472.2505775 -142.52734375 468.21875 C-141.67146667 467.63837982 -140.8155896 467.05800964 -139.93377686 466.46005249 C-138.10647761 465.22077495 -136.28021788 463.97996348 -134.45492554 462.73773193 C-129.65854418 459.47469677 -124.85273611 456.2256131 -120.046875 452.9765625 C-119.08549118 452.32640167 -118.12410736 451.67624084 -117.1335907 451.00637817 C-108.93088909 445.46470835 -100.69656078 439.97263678 -92.42459106 434.53491211 C-91.06950202 433.64406934 -89.71521864 432.7519997 -88.36178589 431.85864258 C-86.49743611 430.62871736 -84.63015406 429.40339463 -82.76171875 428.1796875 C-81.20843872 427.16044189 -81.20843872 427.16044189 -79.6237793 426.12060547 C-72.29908992 421.61019976 -67.09627671 420.16184261 -58.57383728 420.18119812 C-57.33691087 420.17802455 -57.33691087 420.17802455 -56.07499605 420.17478687 C-53.30771519 420.16878843 -50.54047994 420.16978692 -47.77319336 420.1706543 C-45.79047569 420.16762261 -43.80775872 420.16410113 -41.82504272 420.16012573 C-37.55203613 420.1522357 -33.2790379 420.14709136 -29.00602531 420.14383507 C-22.24386417 420.1379231 -15.48175561 420.12137992 -8.71961975 420.10249329 C-6.40383438 420.09615576 -4.08804897 420.08983013 -1.77226353 420.08351612 C-0.03250506 420.0787674 -0.03250506 420.0787674 1.74240005 420.07392275 C17.48540249 420.0318656 33.22838068 419.99888331 48.97143555 419.98657227 C59.58986138 419.97818335 70.2081572 419.95566038 80.826518 419.9172166 C86.44338381 419.89748143 92.06005539 419.88504293 97.67695808 419.89005089 C102.9654513 419.89470847 108.25357686 419.88083104 113.541996 419.85303879 C115.47727311 419.84614531 117.41258838 419.84598049 119.34786415 419.85323906 C135.56659671 419.90790039 147.5874089 417.35068368 160 406.1875 C168.62436066 397.12189298 171.63632532 385.0341323 171.57319641 372.87004089 C171.57702196 372.0704416 171.58084751 371.2708423 171.58478898 370.44701272 C171.59502567 367.79427755 171.59114473 365.14176262 171.5871582 362.48901367 C171.59150989 360.57614443 171.59669455 358.66327692 171.60264587 356.75041199 C171.61599891 351.57259864 171.61661859 346.39485845 171.61408257 341.21703124 C171.61301022 336.88577768 171.61790306 332.55453877 171.622688 328.22328836 C171.6337707 317.99967777 171.63422774 307.77610392 171.62817383 297.55249023 C171.62213624 287.02619108 171.63444248 276.50002568 171.6557439 265.97374934 C171.67339206 256.91782031 171.67935613 247.86193372 171.67610615 238.80598813 C171.67429807 233.40547981 171.67688185 228.00506687 171.69082069 222.6045742 C171.70344656 217.52292417 171.70141006 212.44148172 171.68840981 207.35983467 C171.68605471 205.50236311 171.68874014 203.64487672 171.69703293 201.78742218 C171.76413862 185.57909434 170.34783781 172.36392251 159.0546875 159.80078125 C150.66554838 151.64092729 140.49051573 147.2001875 128.76725006 147.17827892 C127.65759211 147.17382108 126.54793416 147.16936324 125.40465021 147.16477031 C123.58381552 147.16504685 123.58381552 147.16504685 121.72619629 147.16532898 C120.43252687 147.16165229 119.13885745 147.1579756 117.80598593 147.1541875 C114.21667862 147.14418795 110.62738803 147.140454 107.03806877 147.13779819 C103.16601733 147.13388902 99.29397905 147.12431107 95.42193604 147.11558533 C86.07126482 147.09583752 76.72059256 147.08575653 67.36990571 147.07685754 C62.96341523 147.0724716 58.55692594 147.06710556 54.1504364 147.06186867 C39.49670918 147.04485756 24.84298271 147.03036444 10.18924713 147.02311993 C6.38788349 147.02121012 2.58651986 147.01928977 -1.21484375 147.01733398 C-2.1596217 147.01685024 -3.10439966 147.0163665 -4.07780725 147.0158681 C-19.37501263 147.00757172 -34.67213972 146.9822409 -49.96931094 146.94975331 C-65.68461603 146.91665059 -81.39988137 146.89866824 -97.1152215 146.89547569 C-105.93470777 146.89331349 -114.75407988 146.88460752 -123.5735321 146.85901451 C-131.08623996 146.83726354 -138.59880592 146.82927863 -146.11154169 146.83898129 C-149.94105181 146.8435134 -153.77026944 146.84170389 -157.59973907 146.82221985 C-161.76180544 146.80122758 -165.9232286 146.81161385 -170.08532715 146.82475281 C-171.28137117 146.81378356 -172.47741519 146.80281432 -173.70970297 146.79151267 C-189.26231195 146.90956036 -201.84062355 151.94947537 -211.8984375 163.890625 Z M-257.6875 245.3125 C-261.71506375 249.76401783 -262.81033663 252.19944396 -262.86450195 258.13574219 C-262.87733719 259.3575116 -262.89017242 260.57928101 -262.90339661 261.83807373 C-262.91156524 263.17850336 -262.91900874 264.51893759 -262.92578125 265.859375 C-262.92985678 266.53407082 -262.9339323 267.20876663 -262.93813133 267.90390778 C-262.9589944 271.47695103 -262.97329346 275.04995588 -262.98266602 278.62304688 C-262.99371432 282.30628739 -263.02809415 285.98892106 -263.06783772 289.67194748 C-263.09404157 292.50991911 -263.10236126 295.3477472 -263.10594749 298.18582916 C-263.11316184 300.20102044 -263.13958771 302.21611347 -263.16633606 304.23114014 C-263.23987317 313.10781492 -263.23987317 313.10781492 -258.6875 320.3125 C-251.38641321 326.74440979 -250.63307838 325.3125 -238.6875 325.3125 C-238.6875 297.5925 -238.6875 269.8725 -238.6875 241.3125 C-249.66800399 240.70606433 -249.66800399 240.70606433 -257.6875 245.3125 Z M189.3125 241.3125 C189.3125 269.0325 189.3125 296.7525 189.3125 325.3125 C200.65916932 326.2447746 200.65916932 326.2447746 208.3125 321.3125 C212.2897413 316.79779366 213.43503975 314.45809198 213.48950195 308.48925781 C213.50233719 307.2674884 213.51517242 306.04571899 213.52839661 304.78692627 C213.53656524 303.44649664 213.54400874 302.10606241 213.55078125 300.765625 C213.55485678 300.09092918 213.5589323 299.41623337 213.56313133 298.72109222 C213.5839944 295.14804897 213.59829346 291.57504412 213.60766602 288.00195312 C213.61871432 284.31871261 213.65309415 280.63607894 213.69283772 276.95305252 C213.71904157 274.11508089 213.72736126 271.2772528 213.73094749 268.43917084 C213.73816184 266.42397956 213.76458771 264.40888653 213.79133606 262.39385986 C213.8629274 253.518419 213.8629274 253.518419 209.3125 246.3125 C202.46302374 240.13126533 199.72084686 241.3125 189.3125 241.3125 Z " fill="#000000" transform="translate(280.6875,6.6875)"/>
<path d="M0 0 C8.01586887 8.96766035 12.11674298 19.99215042 12 32 C11.27765722 43.55748448 6.73187961 55.11902282 -2 63 C-12.72410644 71.53382651 -24.00554579 74.74889761 -37.6953125 73.81640625 C-47.92175458 72.2216074 -58.15056194 66.76882572 -65 59 C-72.20229507 48.975849 -75.94477181 38.36792185 -75 26 C-72.99278251 13.86186591 -67.80272188 2.63529914 -57.609375 -4.7265625 C-38.52336687 -16.61140805 -16.99091466 -15.29975052 0 0 Z M-50 13 C-54.92754793 18.97903305 -57.54733009 25.20054619 -57 33 C-55.4582685 40.69622417 -52.16192735 46.68822182 -45.6875 51.25 C-39.4204617 55.13882996 -33.95508588 56.63858076 -26.62109375 55.65625 C-18.53606244 53.63197986 -13.32269957 49.04488116 -9.05859375 42.05078125 C-5.93409653 35.99778848 -5.76749484 28.01681733 -7.75390625 21.54296875 C-8.71298403 19.57591902 -9.7672641 17.8060012 -11 16 C-11.53625 15.113125 -12.0725 14.22625 -12.625 13.3125 C-23.68075714 2.54768384 -38.74570724 2.95004115 -50 13 Z " fill="#000000" transform="translate(390,234)"/>
<path d="M0 0 C8.3912395 7.99006471 13.0685797 18.49743062 14.1640625 30 C14.46993576 42.99961334 9.69170845 54.50474833 0.9765625 64.015625 C-2.63740311 67.33543062 -6.6828801 69.65100567 -11.0390625 71.8671875 C-11.67457031 72.1971875 -12.31007812 72.5271875 -12.96484375 72.8671875 C-22.00643597 76.89427782 -33.735812 77.04567714 -43.0390625 73.8671875 C-56.11249659 68.43254244 -64.12357014 61.54134061 -70.109375 48.54296875 C-74.0620671 37.85534983 -73.9768592 26.270799 -69.77734375 15.6875 C-64.31808586 4.19583378 -57.41386267 -3.0619801 -45.57421875 -8.203125 C-29.51263365 -13.85899941 -13.05373855 -10.98022051 0 0 Z M-49.0390625 15.8671875 C-53.62164076 22.02189114 -54.85563062 28.08715244 -54.515625 35.68359375 C-53.4822305 42.58700786 -50.71536458 47.876825 -45.2890625 52.3046875 C-38.76214389 56.60707579 -32.42952704 58.6860756 -24.59765625 57.57421875 C-17.91033874 55.72627299 -11.7420522 51.79197102 -8.0390625 45.8671875 C-7.4821875 44.9803125 -6.9253125 44.0934375 -6.3515625 43.1796875 C-3.64418937 36.34679341 -3.26061503 29.91472683 -5.97265625 23.03125 C-9.62327998 15.62302456 -14.26901368 10.87453198 -22.0390625 7.8671875 C-31.85735989 5.09394911 -42.07279163 8.57654481 -49.0390625 15.8671875 Z " fill="#000000" transform="translate(183.0390625,232.1328125)"/>
<path d="M0 0 C2.17998223 1.55214734 4.04798724 3.29148799 5.99609375 5.125 C15.61305975 14.12333076 29.54865235 16.81360307 42.4140625 16.38671875 C54.81967056 15.04885906 64.88673542 11.82351372 74.0625 3.1875 C76.88647065 0.65146361 77.81089458 0.03525694 81.6875 -0.6875 C85.63155135 0.13107669 87.34854768 0.95862822 90 4 C91.07391829 7.69159412 91.43917338 9.90206656 90 13.5 C79.79943888 26.2507014 66.94723935 31.68763109 51.125 34.75 C49.75243889 34.86681371 48.37636909 34.94362994 47 35 C45.85273438 35.0515625 44.70546875 35.103125 43.5234375 35.15625 C25.3809426 35.69912823 7.93268102 32.36318928 -6 20 C-6.61101562 19.49339844 -7.22203125 18.98679687 -7.8515625 18.46484375 C-10.69618559 15.93703887 -11.96915172 14.10343246 -13.0625 10.4375 C-12.99232214 6.57771774 -12.39017026 4.98771282 -10 2 C-6.15691236 -0.56205842 -4.5659696 -0.67366765 0 0 Z " fill="#000000" transform="translate(217,324)"/>
</svg>
