<?xml version="1.0" encoding="UTF-8"?>
<svg version="1.1" xmlns="http://www.w3.org/2000/svg" width="512" height="512">
<path d="M0 0 C1.07499756 -0.01401855 2.14999512 -0.02803711 3.25756836 -0.04248047 C10.43486847 0.00136239 15.35108739 0.81089925 21.3125 5 C24.22375089 9.09731607 25.27822411 13.81589319 24.73382568 18.82327271 C24.15766664 21.45161512 23.46544889 24.01487876 22.7109375 26.59765625 C22.45124176 27.54257431 22.19154602 28.48749237 21.92398071 29.46104431 C21.37363979 31.44787129 20.81335263 33.43196737 20.24365234 35.41333008 C19.37812734 38.42661231 18.54400561 41.4472359 17.71484375 44.47070312 C17.17369605 46.40936341 16.6307853 48.3475326 16.0859375 50.28515625 C15.71376602 51.62454002 15.71376602 51.62454002 15.33407593 52.99098206 C11.49267008 66.2620996 11.49267008 66.2620996 6.1796875 70.765625 C2.80729909 72.47253412 -0.18376324 73.33344376 -3.875 74.125 C-28.67033313 80.09126075 -47.41599268 97.52115961 -61 118.375 C-61.37189453 118.93993164 -61.74378906 119.50486328 -62.12695312 120.08691406 C-72.34323346 135.78971531 -79.95277492 152.99701208 -86.5 170.5 C-86.90919678 171.58893555 -87.31839355 172.67787109 -87.73999023 173.79980469 C-90.43587028 181.21530892 -92.39155216 188.65287345 -94 196.375 C-92.44152344 195.86839844 -92.44152344 195.86839844 -90.8515625 195.3515625 C-83.30689195 192.926684 -75.85974359 190.54646958 -68 189.375 C-67.28714844 189.26414063 -66.57429688 189.15328125 -65.83984375 189.0390625 C-32.49700462 184.8068668 2.65606638 193.56404426 29.41015625 214.10498047 C54.3491785 234.02709253 70.33752209 261.76810349 75 293.375 C77.08934302 330.17625565 69.06482103 361.74881164 44.52636719 390.07617188 C25.43642012 411.22395052 -2.48989126 425.88725012 -31 428.375 C-58.85258001 429.79430982 -84.5824364 425.07030766 -109 411.375 C-109.99515625 410.82070313 -110.9903125 410.26640625 -112.015625 409.6953125 C-119.56226378 405.18889106 -125.71152818 399.44631596 -132 393.375 C-132.65871094 392.76785156 -133.31742187 392.16070312 -133.99609375 391.53515625 C-155.47926293 371.2427401 -166.38633376 340.5642024 -172.25 312.3125 C-172.40114258 311.59529785 -172.55228516 310.8780957 -172.70800781 310.13916016 C-175.76025977 294.35770843 -176.37624893 278.40445458 -176.3125 262.375 C-176.31100952 261.44056061 -176.30951904 260.50612122 -176.3079834 259.54336548 C-176.2635645 243.97603372 -175.43488209 228.77426494 -173 213.375 C-172.85546387 212.43043945 -172.71092773 211.48587891 -172.56201172 210.51269531 C-165.38868373 164.67647995 -149.40685336 118.76826853 -123 80.375 C-122.5992627 79.79169922 -122.19852539 79.20839844 -121.78564453 78.60742188 C-97.05401123 42.79918435 -64.434593 11.97752808 -21.0625 1.5 C-14.06033982 0.24185785 -7.10539395 0.06465513 0 0 Z " fill="#000000" transform="translate(437,41.625)"/>
<path d="M0 0 C1.62615234 -0.02416992 1.62615234 -0.02416992 3.28515625 -0.04882812 C10.59074342 -0.05328819 15.93143817 0.43059104 21.625 5.375 C25.35860594 9.82660708 24.59581436 14.74674741 24.25 20.3125 C23.65566982 23.81110014 22.75014395 27.17483324 21.765625 30.58203125 C21.50875916 31.50666672 21.25189331 32.43130219 20.98724365 33.38395691 C20.44597087 35.31935178 19.89773379 37.2528116 19.34277344 39.18432617 C18.49849746 42.13024278 17.68140325 45.08276034 16.8671875 48.03710938 C16.33492648 49.92753262 15.80112545 51.81752309 15.265625 53.70703125 C14.90286469 55.01967705 14.90286469 55.01967705 14.53277588 56.35884094 C12.68372163 62.71586711 10.72113207 67.72724546 4.9375 71.4375 C1.11368068 73.17559969 -2.80358657 74.12300106 -6.875 75.125 C-19.64634729 78.31584155 -30.07713883 84.4254695 -39.75 93.3125 C-41.10544922 94.54613281 -41.10544922 94.54613281 -42.48828125 95.8046875 C-70.46907676 122.47944871 -83.33620344 160.36560048 -94.75 196.3125 C-94.19763672 196.14121582 -93.64527344 195.96993164 -93.07617188 195.79345703 C-58.28927181 185.12249618 -22.12265987 185.08927498 10.80102539 202.28881836 C12.62880044 203.27766821 14.44187976 204.28822599 16.25 205.3125 C17.22066406 205.85519531 18.19132813 206.39789063 19.19140625 206.95703125 C46.06753106 223.03576094 64.81632184 250.08112479 72.74633789 280.14990234 C74.91558817 289.46411414 75.60844026 298.51348873 75.5625 308.0625 C75.55686035 309.29532715 75.5512207 310.5281543 75.54541016 311.79833984 C75.11469668 344.1956695 61.36194796 373.78529456 38.25 396.3125 C22.06707626 411.56646269 2.62199903 420.97914216 -18.75 426.3125 C-19.71808594 426.56 -20.68617188 426.8075 -21.68359375 427.0625 C-51.1304745 433.21685534 -86.0080134 426.0108115 -111.35546875 410.11328125 C-118.38714204 405.49165727 -124.68855201 400.13067917 -130.75 394.3125 C-131.52085937 393.59320313 -132.29171875 392.87390625 -133.0859375 392.1328125 C-161.66658948 364.72269917 -174.23433573 321.40520689 -175.85786438 282.74391174 C-175.91321095 280.067221 -175.94033388 277.39207491 -175.953125 274.71484375 C-175.96009399 273.73076035 -175.96706299 272.74667694 -175.97424316 271.73277283 C-175.99155305 268.57180461 -175.99796369 265.41101365 -176 262.25 C-176.00100708 261.17147766 -176.00201416 260.09295532 -176.00305176 258.98175049 C-175.99306329 243.1938086 -175.47454025 227.89500931 -172.75 212.3125 C-172.45610988 210.47019883 -172.16315288 208.62774858 -171.87109375 206.78515625 C-161.92583612 146.42864612 -136.20333593 89.29293638 -94.05273438 44.69433594 C-93.00025378 43.5779491 -91.95923224 42.45076591 -90.921875 41.3203125 C-75.31391582 24.84524447 -53.81564668 12.1694036 -32.4375 4.9375 C-31.73334961 4.69878174 -31.02919922 4.46006348 -30.30371094 4.21411133 C-20.27498104 0.99723915 -10.50328394 -0.03167456 0 0 Z " fill="#000000" transform="translate(175.75,41.6875)"/>
</svg>
