<?xml version="1.0" encoding="UTF-8"?>
<svg version="1.1" xmlns="http://www.w3.org/2000/svg" width="512" height="512">
<path d="M0 0 C4.11670877 3.5438619 8.07225698 7.24903304 12 11 C12.80308594 11.76183594 13.60617187 12.52367187 14.43359375 13.30859375 C20.11232196 18.8298529 25.14312395 24.74857538 30 31 C30.41475586 31.53302734 30.82951172 32.06605469 31.25683594 32.61523438 C47.85441635 54.12090291 61.03051481 77.77363271 71 103 C71.30147949 103.75474609 71.60295898 104.50949219 71.91357422 105.28710938 C78.98793799 123.14862357 84.12974433 141.5902103 87.8125 160.4375 C88.00730957 161.42951416 88.20211914 162.42152832 88.40283203 163.44360352 C91.50086417 180.15796459 92.37752611 196.65075076 92.3125 213.625 C92.30926727 215.14619446 92.30926727 215.14619446 92.30596924 216.69812012 C92.25497227 231.65939288 91.91974723 246.27895715 89 261 C88.79600586 262.04945801 88.59201172 263.09891602 88.38183594 264.18017578 C85.49951195 278.59389346 81.74894485 292.46099333 76 306 C75.53207031 307.10311523 75.53207031 307.10311523 75.0546875 308.22851562 C61.41877943 339.79619712 38.36111497 365.92044109 6.03515625 378.78173828 C-22.75655842 389.49173476 -55.21373084 388.61984267 -83.23974609 375.99072266 C-113.2130354 361.74540909 -134.54097043 338.0007675 -146 307 C-155.67382243 277.81942378 -153.84049263 244.60889937 -140 217 C-124.84374462 188.62860802 -101.28888881 167.93147097 -70.55078125 157.87109375 C-59.00994574 154.43042662 -47.8587596 152.62125456 -35.8125 152.6875 C-34.72316162 152.69313965 -33.63382324 152.6987793 -32.51147461 152.70458984 C-16.68889382 152.9404515 -0.29547991 155.85226004 14 163 C7.52513435 125.06665883 -12.01061681 87.38396482 -39 60 C-39.79921875 59.18789062 -40.5984375 58.37578125 -41.421875 57.5390625 C-51.88230222 47.52303252 -65.06098521 39.92573516 -79.796875 39.50390625 C-83.20015821 38.72549573 -85.2782344 37.17296932 -88 35 C-89.49072266 31.75976562 -89.49072266 31.75976562 -90.5390625 27.90625 C-90.73633942 27.20777954 -90.93361633 26.50930908 -91.13687134 25.78967285 C-91.55729139 24.29729411 -91.96867567 22.80234491 -92.3717041 21.30517578 C-92.99741239 19.00949376 -93.66249581 16.72927955 -94.34277344 14.44921875 C-95.49322023 10.59149451 -96.60755291 6.72479104 -97.70458984 2.8515625 C-98.15611723 1.26776359 -98.61393013 -0.31425528 -99.07763672 -1.89453125 C-99.76168889 -4.22785087 -100.42577147 -6.56607568 -101.0859375 -8.90625 C-101.29415131 -9.6022229 -101.50236511 -10.2981958 -101.71688843 -11.01525879 C-103.10170042 -16.04253908 -103.02336419 -19.87022507 -102 -25 C-99.90632774 -28.32099737 -98.19785626 -29.65334766 -94.421875 -30.74609375 C-59.73086285 -37.33012092 -26.1197214 -21.66847575 0 0 Z " fill="#000000" transform="translate(420,79)"/>
<path d="M0 0 C9.26360519 8.58068546 18.02788354 17.50754276 25.68896484 27.56445312 C26.50107422 28.59828125 27.31318359 29.63210937 28.14990234 30.69726562 C75.11815507 91.61960088 94.97302549 172.85231427 85.28222656 248.75 C83.41507981 261.26381193 80.46621102 273.49663586 76.68896484 285.56445312 C76.47546387 286.25812988 76.26196289 286.95180664 76.04199219 287.66650391 C69.04654195 310.02164324 57.90188322 329.6353014 41.68896484 346.56445312 C40.88458984 347.41007812 40.08021484 348.25570313 39.25146484 349.12695312 C38.40583984 349.93132812 37.56021484 350.73570312 36.68896484 351.56445312 C36.03025391 352.21800781 35.37154297 352.8715625 34.69287109 353.54492188 C14.10776679 373.1835846 -15.0563707 382.31002971 -43.17431641 381.81054688 C-70.82466871 380.44735806 -95.09196692 371.32452257 -116.31103516 353.56445312 C-117.10767578 352.93152344 -117.90431641 352.29859375 -118.72509766 351.64648438 C-139.7559074 334.21989468 -152.91446916 306.35369726 -156.31103516 279.56445312 C-157.18870762 263.38501532 -157.36796029 247.09452631 -152.31103516 231.56445312 C-152.09141113 230.87754395 -151.87178711 230.19063477 -151.64550781 229.48291016 C-141.90099397 199.79421088 -121.37090044 175.14867023 -93.68212891 160.62304688 C-65.37349234 146.41407871 -32.33794034 144.31479603 -2.29931641 154.16601562 C1.73296643 155.54309131 5.71755291 157.02115833 9.68896484 158.56445312 C-1.22289498 120.93610317 -15.33908384 86.61116992 -42.31103516 57.56445312 C-42.92462891 56.87351562 -43.53822266 56.18257813 -44.17041016 55.47070312 C-54.71944342 44.11020577 -68.57216558 36.57731479 -83.97900391 35.34960938 C-88.05389618 34.38940615 -90.69360587 32.77522652 -93.31103516 29.56445312 C-94.53856094 26.81289775 -95.40447691 24.43488662 -96.18603516 21.56445312 C-96.42088623 20.76354248 -96.6557373 19.96263184 -96.89770508 19.13745117 C-97.72478018 16.28580659 -98.51693492 13.42545086 -99.31103516 10.56445312 C-100.01732871 8.09158606 -100.72440404 5.61894219 -101.43212891 3.14648438 C-102.166126 0.5576282 -102.89539442 -2.03253831 -103.62353516 -4.62304688 C-103.97335449 -5.86376953 -104.32317383 -7.10449219 -104.68359375 -8.3828125 C-109.17333832 -24.67777504 -109.17333832 -24.67777504 -106.68603516 -29.74804688 C-102.50373473 -34.48064999 -99.02436719 -35.82446378 -92.87744141 -36.31054688 C-57.23949631 -38.0463372 -26.09199445 -23.60590792 0 0 Z " fill="#000000" transform="translate(156.31103515625,83.435546875)"/>
</svg>
