<?xml version="1.0" encoding="UTF-8"?>
<svg version="1.1" xmlns="http://www.w3.org/2000/svg" width="512" height="512">
<path d="M0 0 C0.74228093 -0.00205263 1.48456186 -0.00410527 2.24933615 -0.0062201 C4.74438768 -0.01188859 7.23938397 -0.01043304 9.7344408 -0.00901413 C11.53829236 -0.01159785 13.34214334 -0.01461103 15.14599353 -0.01801753 C20.10928284 -0.02608994 25.07255769 -0.02787724 30.03585279 -0.028615 C35.38638502 -0.03046513 40.73690974 -0.03801225 46.08743763 -0.04475021 C57.78991809 -0.05833568 69.49239512 -0.06435856 81.19488215 -0.06876087 C88.50092406 -0.07152288 95.80696463 -0.07576015 103.11300564 -0.08026505 C123.33838506 -0.09245789 143.56376341 -0.10275724 163.78914642 -0.10614014 C165.08376893 -0.1063597 166.37839143 -0.10657927 167.71224492 -0.10680549 C169.00997704 -0.10702377 170.30770917 -0.10724204 171.64476651 -0.10746694 C174.2744962 -0.1079104 176.90422589 -0.10835697 179.53395557 -0.10880661 C181.49061356 -0.10913875 181.49061356 -0.10913875 183.48679999 -0.10947761 C204.6252839 -0.11342596 225.76373335 -0.13088107 246.90220394 -0.15416613 C268.60091001 -0.17787555 290.29959878 -0.1903418 311.99831802 -0.19150805 C324.18289683 -0.19242503 336.36743074 -0.19818317 348.55199718 -0.21632767 C358.92708344 -0.23172308 369.30211091 -0.23685239 379.67720642 -0.22858956 C384.97054584 -0.22468113 390.26376684 -0.2256222 395.55709171 -0.23964691 C400.40497599 -0.25237395 405.25265274 -0.25119875 410.10053668 -0.2390562 C411.8522379 -0.23709714 413.60395377 -0.24018727 415.35563441 -0.24890056 C430.43890196 -0.31916482 443.34656996 1.83672065 454.8808794 12.35408401 C464.80057434 22.77778192 468.19845984 34.07567192 468.04518604 48.18928909 C467.55456095 61.4680772 461.41047169 72.16968072 451.9043169 81.27595901 C439.59859231 91.06694592 426.03042932 91.42783902 411.09442616 91.39212418 C409.30504599 91.3951468 407.51566712 91.39903683 405.72629052 91.40371674 C400.82148666 91.41399125 395.91675593 91.4118163 391.01194608 91.40753615 C385.71733874 91.40506793 380.42274897 91.4140843 375.12814808 91.42157364 C364.76000957 91.43432013 354.39189696 91.43611438 344.02375194 91.43377338 C335.59538561 91.43198995 327.16702715 91.43374039 318.73866177 91.43799782 C317.53883907 91.43859301 316.33901638 91.4391882 315.10283542 91.43980142 C312.66534 91.44101318 310.22784458 91.44222731 307.79034916 91.4434438 C284.93341325 91.45431922 262.0764921 91.45215687 239.21955536 91.44605895 C218.31546915 91.44089021 197.41142954 91.45214413 176.50735255 91.47115717 C155.03676966 91.49053557 133.56620881 91.49879154 112.09561712 91.49503392 C100.04405898 91.49312183 87.9925405 91.49561022 75.94098949 91.50974846 C65.68096994 91.52166325 55.42101446 91.52306602 45.16099402 91.51095829 C39.92813963 91.50507025 34.69540246 91.50396819 29.46255589 91.51596069 C24.66776626 91.52682139 19.87319167 91.52371381 15.07841209 91.50969901 C13.34833111 91.50705261 11.61823326 91.50941681 9.88816883 91.51743487 C-6.47499784 91.58797786 -19.63444278 89.47375058 -32.11521435 78.13142776 C-42.30566712 67.50656848 -44.93402962 55.17145638 -44.6972456 40.97517776 C-44.22643775 28.98929119 -38.84254066 19.34652505 -30.29490185 11.06502151 C-21.30632383 3.60675696 -11.59786981 -0.02988467 0 0 Z " fill="#3FD2FF" transform="translate(44.427714347839355,300.8685722351074)"/>
<path d="M0 0 C24.05637253 -0.12032643 24.05637253 -0.12032643 34.34765625 -0.14648438 C41.35700331 -0.16438515 48.36623226 -0.18551273 55.37548828 -0.22631836 C61.02946895 -0.25902628 66.68332288 -0.27687716 72.3373909 -0.28463173 C74.48944721 -0.29015473 76.64149695 -0.30093965 78.79349899 -0.31719017 C81.81870003 -0.3391163 84.84338404 -0.34196058 87.86865234 -0.34057617 C88.74907196 -0.351362 89.62949158 -0.36214783 90.53659058 -0.3732605 C102.45102685 -0.31465013 113.49702359 4.18797627 122.30859375 12.22265625 C132.22828868 22.64635416 135.62617419 33.94424416 135.47290039 48.05786133 C134.9822753 61.33664943 128.83818604 72.03825295 119.33203125 81.14453125 C109.48563393 88.97876698 98.43074949 91.32896988 86.16577148 91.22705078 C84.75928596 91.22748886 84.75928596 91.22748886 83.3243866 91.22793579 C80.2565248 91.22655379 77.18891258 91.21104619 74.12109375 91.1953125 C71.98161451 91.19157835 69.84213355 91.18873328 67.70265198 91.18673706 C62.09507454 91.17913227 56.48760211 91.15951105 50.88006592 91.1373291 C44.13934245 91.11318808 37.39858369 91.10407467 30.65782928 91.09242249 C20.43848001 91.07308471 10.21936077 91.03474004 0 91 C0 60.97 0 30.94 0 0 Z " fill="#D5DBE6" transform="translate(377,301)"/>
<path d="M0 0 C7.80005588 5.04448448 11.67509595 16.95360779 15.6484375 24.9765625 C16.21704498 26.11660736 16.78565247 27.25665222 17.37149048 28.4312439 C18.86377043 31.42502477 20.35255815 34.4204876 21.83959961 37.41687012 C23.36534932 40.48903202 24.89577695 43.55886166 26.42578125 46.62890625 C29.41311099 52.62549307 32.39584909 58.62434604 35.375 64.625 C35.38086624 63.97655624 35.38673248 63.32811249 35.39277649 62.66001892 C35.45684114 55.89488826 35.54129488 49.13022755 35.63745117 42.36547852 C35.67065129 39.84275519 35.69869842 37.31995846 35.72143555 34.79711914 C35.75507096 31.16520994 35.80739367 27.53397043 35.86328125 23.90234375 C35.86967117 22.77916245 35.8760611 21.65598114 35.88264465 20.49876404 C36.00762033 13.80256675 36.32555194 8.16680686 40.875 2.8828125 C45.9708644 -0.96562676 50.02645002 -2.03756214 56.375 -1.375 C61.72240414 0.57885921 64.83118143 3.53736287 67.375 8.625 C67.47449239 10.3494768 67.51007671 12.07779385 67.51544189 13.80513 C67.52115204 14.90290771 67.52686218 16.00068542 67.53274536 17.13172913 C67.53442215 18.94658058 67.53442215 18.94658058 67.53613281 20.7980957 C67.54358017 22.7030632 67.54358017 22.7030632 67.55117798 24.64651489 C67.56431016 28.13628978 67.57074866 31.62604541 67.57518864 35.11584115 C67.57811839 37.295865 67.58222304 39.47588357 67.58669281 41.65590477 C67.60037066 48.47587221 67.61003558 55.29582762 67.6138947 62.11580783 C67.6183746 69.98981394 67.635918 77.86364637 67.6648953 85.73759967 C67.68651186 91.82259709 67.69659899 97.90754566 67.69793582 103.99258107 C67.69898399 107.62739336 67.70489393 111.26204246 67.72275543 114.89681435 C67.74229731 118.95255695 67.73794728 123.00793625 67.73144531 127.0637207 C67.7406601 128.26754898 67.74987488 129.47137726 67.7593689 130.71168518 C67.75379974 131.81792236 67.74823059 132.92415955 67.74249268 134.06391907 C67.74469252 135.50216774 67.74469252 135.50216774 67.7469368 136.96947193 C67.07192471 141.7888755 64.17751161 145.67349086 60.375 148.66796875 C56.01275098 150.75537306 51.01853701 150.62046191 46.375 149.625 C38.43638954 145.53317423 35.62435076 138.27698028 31.91015625 130.57421875 C31.22671494 129.19052726 30.5416659 127.8076288 29.85508728 126.42549133 C28.06193857 122.80501172 26.29068439 119.1742474 24.52392578 115.54083252 C22.71341138 111.82734542 20.88218936 108.12410391 19.05273438 104.41992188 C15.47325633 97.16476223 11.91686585 89.89859495 8.375 82.625 C8.36913376 83.3132486 8.36326752 84.00149719 8.35722351 84.71060181 C8.29323516 91.88106786 8.20880068 99.05108737 8.11254883 106.22119141 C8.07767998 108.89636214 8.05128119 111.57123638 8.02856445 114.24658203 C7.99498733 118.09437788 7.94266721 121.94153489 7.88671875 125.7890625 C7.87713387 127.58000839 7.87713387 127.58000839 7.86735535 129.40713501 C7.68261713 139.8666736 7.68261713 139.8666736 4.375 144.625 C-0.79909985 149.29430962 -4.02121709 149.98787625 -10.86328125 149.8984375 C-14.79860604 149.50880138 -16.77233132 148.33851411 -19.625 145.625 C-24.28344992 139.3352762 -24.19042573 133.83568321 -24.12670898 126.17553711 C-24.13211197 124.93569565 -24.13751495 123.69585419 -24.14308167 122.41844177 C-24.15341504 119.03390668 -24.14590392 115.65035603 -24.12937045 112.265908 C-24.11546892 108.71596981 -24.1219857 105.16605976 -24.12550354 101.61610413 C-24.1282013 95.65699065 -24.11476644 89.69807909 -24.09155273 83.73901367 C-24.06493338 76.85825089 -24.06320132 69.97782532 -24.0749411 63.09702867 C-24.08573456 56.4649723 -24.07952034 49.83303742 -24.06538582 43.20099068 C-24.0596408 40.38413164 -24.05969692 37.56736193 -24.06445122 34.75050163 C-24.07012649 30.81522823 -24.05086733 26.88028987 -24.02905273 22.94506836 C-24.03355438 21.7807428 -24.03805603 20.61641724 -24.04269409 19.41680908 C-23.98304159 12.94155624 -23.69128168 7.9867307 -19.125 2.98046875 C-12.91313895 -1.85637098 -7.32738578 -2.77935323 0 0 Z " fill="#14171A" transform="translate(414.625,121.375)"/>
<path d="M0 0 C39.93 0 79.86 0 121 0 C121 30.03 121 60.06 121 91 C81.07 91 41.14 91 0 91 C0 60.97 0 30.94 0 0 Z " fill="#22B2FC" transform="translate(256,301)"/>
<path d="M0 0 C8.26141781 6.48695835 14.38652067 16.54142621 16 27 C16.10657462 29.5212937 16.16721211 32.01597486 16.17700195 34.53735352 C16.18357315 35.27958664 16.19014435 36.02181976 16.19691467 36.7865448 C16.2165628 39.23399984 16.22829406 41.68139363 16.23828125 44.12890625 C16.24235678 44.96988295 16.2464323 45.81085964 16.25063133 46.67732048 C16.27146048 51.13261541 16.28577327 55.58787987 16.29516602 60.04321289 C16.30619675 64.61692079 16.34056687 69.1901377 16.38033772 73.76367283 C16.40664268 77.30444668 16.41487029 80.84510622 16.41844749 84.38596916 C16.42328122 86.07027421 16.434802 87.75457529 16.45348549 89.43878365 C16.61026645 104.51399693 14.3785701 116.35094977 4 128 C-6.48133719 138.19018894 -17.46175972 141.29276712 -31.64599609 141.31689453 C-44.07889296 141.12547377 -53.78360708 136.10828985 -62.75 127.625 C-71.4207068 118.47258727 -75.0918955 107.50386885 -75.16113281 95.01342773 C-75.16858017 93.98786018 -75.16858017 93.98786018 -75.17617798 92.9415741 C-75.19073028 90.68890353 -75.19759217 88.43630353 -75.203125 86.18359375 C-75.20595238 85.40881243 -75.20877975 84.63403111 -75.21169281 83.83577156 C-75.22666225 79.73059883 -75.23590418 75.62546099 -75.24023438 71.52026367 C-75.24569655 67.30983896 -75.26968294 63.09974131 -75.29820633 58.8894186 C-75.31697318 55.62658302 -75.32204585 52.36382375 -75.32357025 49.1009388 C-75.32656888 47.55062141 -75.33450123 46.00030445 -75.34775543 44.45004082 C-75.47063252 28.96480035 -73.36543317 15.40576813 -62.70703125 3.421875 C-57.10381813 -1.9586349 -51.28643024 -5.3724691 -44 -8 C-43.33484375 -8.24492188 -42.6696875 -8.48984375 -41.984375 -8.7421875 C-27.23901496 -13.26492398 -11.91029402 -9.07976118 0 0 Z M-40 25 C-44.92753067 32.28763708 -44.57077107 39.45067265 -44.49609375 48.0078125 C-44.49624898 49.46174186 -44.49774199 50.91567164 -44.50050354 52.36959839 C-44.50188198 55.40397629 -44.48942071 58.4378783 -44.46655273 61.47216797 C-44.43811829 65.35025953 -44.44092636 69.22756454 -44.45364285 73.1057148 C-44.46061464 76.10328833 -44.45279459 79.10068175 -44.44038582 82.09823227 C-44.43588944 83.52788476 -44.43551858 84.9575567 -44.43945122 86.38721085 C-44.44237919 88.38724224 -44.42364015 90.38726941 -44.40405273 92.38720703 C-44.39864975 93.52223663 -44.39324677 94.65726624 -44.38768005 95.82669067 C-43.78509281 100.75909742 -42.11257059 103.99597288 -38.4375 107.3125 C-34.4049247 110.1042829 -31.5477382 110.5094604 -26.68359375 110.48828125 C-21.99711585 109.63557421 -18.95542595 106.60361336 -16 103 C-14.87044706 99.61134118 -14.85228701 96.99398247 -14.82299805 93.4206543 C-14.81642685 92.7568576 -14.80985565 92.09306091 -14.80308533 91.40914917 C-14.78338821 89.21417115 -14.77169784 87.01926144 -14.76171875 84.82421875 C-14.75764322 84.07321207 -14.7535677 83.32220539 -14.74936867 82.54844093 C-14.72852324 78.57339377 -14.71421493 74.59838098 -14.70483398 70.62329102 C-14.69377241 66.52421572 -14.65937167 62.42568369 -14.61966228 58.32680035 C-14.59347937 55.16885896 -14.58514071 52.01104674 -14.58155251 48.85300636 C-14.57669086 47.34236799 -14.56508879 45.83173523 -14.54651451 44.32120323 C-14.52208545 42.2028775 -14.52309384 40.08595366 -14.5300293 37.9675293 C-14.52416306 36.76412399 -14.51829681 35.56071869 -14.51225281 34.32084656 C-15.22001769 29.50200062 -17.43902648 26.37176461 -21.0625 23.1875 C-27.4051644 19.30006053 -34.45260926 20.1785997 -40 25 Z " fill="#32383F" transform="translate(225,130)"/>
<path d="M0 0 C11.70479987 8.54940756 18.35974259 19.46108871 20.59851074 33.66116333 C21.30221904 39.62283923 21.28466036 45.56214599 21.265625 51.55859375 C21.26697761 52.92277597 21.26892305 54.28695771 21.27142334 55.65113831 C21.27434766 58.49086154 21.27016555 61.33045773 21.26074219 64.17016602 C21.24936021 67.77154658 21.25591638 71.37262846 21.26788712 74.97399807 C21.27518863 77.78565127 21.27278005 80.59723618 21.26763153 83.40889168 C21.26568806 85.3699628 21.2716579 87.33103682 21.27789307 89.292099 C21.18942075 106.43544742 18.59441919 120.1471088 6.421875 132.87109375 C-2.48601146 140.93129424 -12.8425369 144.65410479 -24.75 144.5625 C-25.62180908 144.55677979 -26.49361816 144.55105957 -27.3918457 144.54516602 C-41.21570251 144.16595797 -51.37860266 138.14643411 -60.75 128.3125 C-70.63529307 116.43179974 -71.31346524 102.36694247 -71.265625 87.59765625 C-71.26697599 86.11372311 -71.26892012 84.62979041 -71.27142334 83.14585876 C-71.27435513 80.05040228 -71.27014074 76.95506201 -71.26074219 73.85961914 C-71.24935884 69.92169194 -71.25591241 65.98403782 -71.26788712 62.04612064 C-71.2751672 58.98577372 -71.27278964 55.92548989 -71.26763153 52.86514091 C-71.26631145 51.41449386 -71.26788414 49.96384079 -71.27259064 48.51320076 C-71.31163595 33.0991104 -69.80078648 18.44745431 -58.75 6.6484375 C-42.37782611 -8.18884509 -19.25409521 -12.31625595 0 0 Z M-36.8125 30 C-40.02414007 34.49629609 -40.12826489 37.79921715 -40.17700195 43.26464844 C-40.18983719 44.51985291 -40.20267242 45.77505737 -40.21589661 47.06829834 C-40.22406568 48.43615318 -40.23150909 49.80401253 -40.23828125 51.171875 C-40.24235678 51.8643055 -40.2464323 52.55673599 -40.25063133 53.27014923 C-40.27145723 56.9362813 -40.28577312 60.60237635 -40.29516602 64.26855469 C-40.30621493 68.03897242 -40.34060639 71.80879749 -40.38033772 75.5790062 C-40.40658806 78.49254388 -40.4148653 81.40594219 -40.41844749 84.31958771 C-40.42329287 85.70855963 -40.43484802 87.0975262 -40.45348549 88.48638153 C-40.55343712 96.4292387 -40.43784635 102.33299136 -36 109.0625 C-32.48927502 112.4060476 -29.72963091 113.33525047 -25 113.5625 C-20.31094378 113.35801484 -17.55033611 112.26646186 -14 109.0625 C-10.43554057 104.14600424 -9.8770418 100.01731507 -9.83886719 94.04394531 C-9.82925964 92.82878235 -9.8196521 91.61361938 -9.80975342 90.3616333 C-9.80550354 89.05120056 -9.80125366 87.74076782 -9.796875 86.390625 C-9.79404762 85.72025963 -9.79122025 85.04989426 -9.78830719 84.35921478 C-9.77333789 80.80978504 -9.76409495 77.26039568 -9.75976562 73.7109375 C-9.75429267 70.06169109 -9.73028351 66.41282 -9.70179367 62.76369095 C-9.68307734 59.94279944 -9.67795688 57.1219966 -9.67642975 54.30104828 C-9.67196767 52.30703905 -9.65336386 50.31307745 -9.63446045 48.31915283 C-9.65473545 40.02450083 -9.88014702 33.55376405 -15.625 27.125 C-23.3561866 22.40038597 -30.66687643 23.10149377 -36.8125 30 Z " fill="#141619" transform="translate(341,126.9375)"/>
<path d="M0 0 C0.85613388 -0.0066568 1.71226776 -0.0133136 2.59434509 -0.02017212 C4.39010492 -0.03022311 6.18590153 -0.0349915 7.98168945 -0.03466797 C10.7117275 -0.03905749 13.44016704 -0.07550087 16.16992188 -0.11328125 C17.92577579 -0.11914801 19.68163729 -0.12311835 21.4375 -0.125 C22.2429274 -0.13937103 23.0483548 -0.15374207 23.87818909 -0.16854858 C29.58162071 -0.1230406 33.86431445 1.18829034 38.65234375 4.3359375 C41.58495416 7.69045649 42.53065536 11.48411876 43.15234375 15.8359375 C42.53065536 20.18775624 41.58495416 23.98141851 38.65234375 27.3359375 C33.17169753 30.89034934 28.43281813 31.91022733 21.98828125 31.83984375 C20.79472519 31.8539756 20.79472519 31.8539756 19.57705688 31.86839294 C17.06021773 31.89681898 14.54432964 31.90012902 12.02734375 31.8984375 C9.50335706 31.90205698 6.98005235 31.9116882 4.45620728 31.93919373 C2.89361127 31.95585631 1.33079058 31.95895749 -0.23184204 31.94618225 C-5.02212581 31.99233162 -8.28331297 32.79392641 -12.34765625 35.3359375 C-16.05956246 39.43857068 -16.9970083 42.77679558 -16.734375 48.15625 C-15.95941911 52.5241832 -13.7294348 55.28401962 -10.26953125 57.91796875 C-6.33519557 59.82727871 -2.59409631 60.14742761 1.71484375 60.6484375 C14.0602696 62.3489386 24.41803379 66.81497208 32.48828125 76.55078125 C40.55795858 87.32737566 43.56491434 99.00588856 42.65234375 112.3359375 C40.20607386 125.89834558 33.61650297 136.64934495 22.27734375 144.7109375 C10.60555637 151.55320038 0.13601332 151.93890403 -13.12890625 151.80249023 C-16.2362125 151.7733102 -19.34183166 151.78195404 -22.44921875 151.79492188 C-24.43360201 151.78868973 -26.41797994 151.7803029 -28.40234375 151.76953125 C-29.78835281 151.77393471 -29.78835281 151.77393471 -31.20236206 151.77842712 C-37.48255138 151.68634127 -40.83483267 150.56955846 -45.59765625 146.3359375 C-48.90841996 142.55220754 -48.62803281 138.55388216 -48.55859375 133.76953125 C-48.15130939 129.07067652 -45.98120134 126.96728834 -42.73950195 123.73681641 C-39.15815943 120.80614217 -35.69979132 120.6519826 -31.203125 120.734375 C-30.0492907 120.72236557 -30.0492907 120.72236557 -28.87214661 120.71011353 C-26.42594023 120.68715318 -23.98140515 120.6964498 -21.53515625 120.7109375 C-5.74865022 121.4484936 -5.74865022 121.4484936 8.15234375 115.2109375 C10.20691221 111.27301461 10.84814203 107.76881052 10.65234375 103.3359375 C9.04179271 98.59375943 6.77778761 96.1206121 2.65234375 93.3359375 C-0.70757545 92.21596443 -3.76111941 91.94961519 -7.28515625 91.5859375 C-19.41589666 90.10075016 -30.33765486 85.52647487 -38.31640625 75.98046875 C-47.47129124 63.47008566 -49.79924668 51.59015075 -48.34765625 36.3359375 C-45.28518814 23.29404744 -37.20535777 12.83718294 -25.86328125 5.79296875 C-17.54187746 1.3867596 -9.34254612 0.02588141 0 0 Z " fill="#32383F" transform="translate(78.34765625,119.6640625)"/>
</svg>
