<?xml version="1.0" encoding="UTF-8"?>
<svg version="1.1" xmlns="http://www.w3.org/2000/svg" width="512" height="512">
<path d="M0 0 C1.53564297 0.01819876 3.07128765 0.0362537 4.60693359 0.05419922 C43.79645582 0.53831019 82.90201861 2.46528767 121.9375 6 C122.83271362 6.0776358 123.72792725 6.15527161 124.65026855 6.23526001 C127.15249398 6.455505 129.65235905 6.69327311 132.15234375 6.9375 C132.87999435 6.99999435 133.60764496 7.06248871 134.35734558 7.12687683 C138.60187613 7.5689567 141.58672085 8.40773492 145 11 C147 14 147 14 146.8125 17.5 C145.76275241 22.0219896 145.76275241 22.0219896 143 24 C132.58816466 25.42894202 121.23556423 23.41700917 110.82989502 22.40444946 C24.55528502 14.0690066 -63.8567568 14.27099206 -251 46 C-251.33 46.66 -251.66 47.32 -252 48 C-234.84773307 57.74364071 -216.16853648 61.42073759 -196.92578125 64.921875 C-195.9301416 65.10427734 -194.93450195 65.28667969 -193.90869141 65.47460938 C-191.9911753 65.82096615 -190.07155218 66.15588125 -188.14990234 66.47851562 C-187.26898926 66.63513672 -186.38807617 66.79175781 -185.48046875 66.953125 C-184.70985107 67.08364258 -183.9392334 67.21416016 -183.14526367 67.34863281 C-180.3571083 68.19520144 -179.03784032 68.86663636 -177 71 C-176.60843614 73.92765268 -176.47716606 76.48002953 -176.51898193 79.40910339 C-176.51556423 80.27737977 -176.51214653 81.14565614 -176.50862527 82.04024392 C-176.50201626 84.96099893 -176.52407217 87.8808428 -176.54589844 90.80151367 C-176.54702626 92.89059935 -176.54639433 94.97968661 -176.54412842 97.06877136 C-176.54297781 102.75036872 -176.56654333 108.43163029 -176.59442425 114.1131494 C-176.61938014 120.04687673 -176.62177531 125.98061122 -176.62652588 131.91438293 C-176.63897276 143.15538553 -176.67181758 154.39623305 -176.71192384 165.63716727 C-176.75658826 178.43261846 -176.77861518 191.22807694 -176.79870558 204.02358663 C-176.84054867 230.34914382 -176.91093402 256.67456323 -177 283 C-176.44217205 282.91409198 -175.8843441 282.82818396 -175.30961227 282.73967266 C-172.73116908 282.34392575 -170.15221428 281.95161108 -167.57324219 281.55932617 C-166.69618622 281.42419365 -165.81913025 281.28906113 -164.91549683 281.14983368 C-156.38599894 279.85697478 -147.84363695 279.03239095 -139.25 278.3125 C-137.75125252 278.18220949 -136.25255433 278.0513508 -134.75390625 277.91992188 C-131.16980891 277.60679767 -127.58512776 277.30112749 -124 277 C-124.66 274.03 -125.32 271.06 -126 268 C-127.37414062 267.96261719 -128.74828125 267.92523438 -130.1640625 267.88671875 C-131.98440127 267.82103642 -133.80471257 267.75458987 -135.625 267.6875 C-136.52863281 267.66494141 -137.43226563 267.64238281 -138.36328125 267.61914062 C-144.53818617 267.37124298 -149.1477897 266.63096967 -153.86328125 262.28125 C-154.34152344 261.6934375 -154.81976563 261.105625 -155.3125 260.5 C-155.80363281 259.9121875 -156.29476562 259.324375 -156.80078125 258.71875 C-158.79410857 255.86186393 -159.13049222 253.31056013 -159.17700195 249.9309082 C-159.19625481 248.70867302 -159.19625481 248.70867302 -159.21589661 247.46174622 C-159.22328354 246.58362778 -159.23067047 245.70550934 -159.23828125 244.80078125 C-159.246353 243.89176559 -159.25442474 242.98274994 -159.26274109 242.04618835 C-159.27657275 240.12041119 -159.28729901 238.1946096 -159.29516602 236.26879883 C-159.3123339 233.34082749 -159.35622265 230.4139988 -159.40039062 227.48632812 C-159.41052209 225.61198744 -159.41903677 223.73763718 -159.42578125 221.86328125 C-159.44328934 220.99528397 -159.46079742 220.12728668 -159.47883606 219.23298645 C-159.45807772 213.33958249 -158.30967325 208.92856766 -155 204 C-150.26412797 199.38556059 -146.20933105 197.89337136 -139.6875 197.875 C-138.12477089 197.90693899 -136.56210161 197.94540227 -135 198 C-135.19335938 197.40058594 -135.38671875 196.80117187 -135.5859375 196.18359375 C-142.98818926 170.42229184 -141.04866549 144.07657773 -128.36694336 120.43310547 C-124.52879316 113.7342717 -119.50226798 108.36097107 -114 103 C-113.39414063 102.38511719 -112.78828125 101.77023438 -112.1640625 101.13671875 C-102.00443334 91.54702001 -89.82003139 88.78142506 -76.3828125 88.82421875 C-73.51126229 88.97343325 -71.1950909 89.41779495 -68.4375 90.125 C-65.09888293 90.56606501 -64.05047719 90.03277199 -61.16015625 88.15625 C-59.53050256 86.88588599 -57.94101693 85.57576721 -56.35473633 84.25170898 C-36.59908389 67.9050302 -9.30473584 61.07070768 16 63 C38.57601158 65.16201219 61.29140854 73.20071964 78 89 C79.54586876 92.09173752 79.29359521 94.59429552 79 98 C77.5 100.4375 77.5 100.4375 75 102 C71.5607627 102.79839437 70.28006156 102.97807437 67 102 C64.01413561 99.99591304 61.26914047 97.76538627 58.4609375 95.51953125 C48.24404227 87.7331 35.421064 83.61416554 23 81 C21.93652344 80.77376953 21.93652344 80.77376953 20.8515625 80.54296875 C18.88457652 80.22086406 16.99298655 80.08275377 15 80 C13.26363281 79.92265625 13.26363281 79.92265625 11.4921875 79.84375 C-10.98990444 79.17673238 -32.86404552 86.2814391 -50 101 C-51.1446875 102.10021484 -51.1446875 102.10021484 -52.3125 103.22265625 C-58.17547544 108.83803982 -58.17547544 108.83803982 -62.5 109.6875 C-65.29826894 109.13784003 -67.65175953 108.45525709 -70.3125 107.5 C-77.59236797 104.90446134 -84.63443165 105.24475066 -91.84375 107.9609375 C-95.66389844 109.80180613 -98.80324597 112.23737306 -102 115 C-102.58523437 115.47953125 -103.17046875 115.9590625 -103.7734375 116.453125 C-116.39340041 127.7596981 -121.67816049 145.64192578 -122.90673828 161.98632812 C-123.26051452 169.62493133 -122.63286026 176.81358635 -120 184 C-119.319375 183.2575 -118.63875 182.515 -117.9375 181.75 C-112.59383692 176.3758017 -106.90292453 173.98774643 -99.4375 173.875 C-91.98584493 173.36450829 -88.01605993 171.46931836 -83 166 C-77.55449075 159.74818144 -74.181839 152.5674961 -71.01538086 144.97705078 C-68.81064919 139.92320793 -66.64040644 137.06207711 -62 134 C-59.4375 133.37109375 -59.4375 133.37109375 -57 133.4375 C-56.195625 133.43621094 -55.39125 133.43492187 -54.5625 133.43359375 C-48.52735549 134.76758148 -44.73342526 139.12868934 -40.8125 143.625 C-31.72507005 153.75769406 -22.41287928 162.20663996 -10 168 C-9.14129807 168.41516876 -8.28259613 168.83033752 -7.39787292 169.25808716 C1.38417092 173.09683421 8.92118449 173.69000089 18.3900547 173.59158516 C20.89317038 173.56577585 23.39467109 173.5710853 25.89787292 173.58348083 C31.20293386 173.60403604 36.50747373 173.58463234 41.8125 173.5625 C47.98490251 173.54130433 54.15677657 173.5369149 60.32916832 173.56300163 C62.78223576 173.56633851 65.23426514 173.54523769 67.68721008 173.52259827 C79.02947704 173.50128067 86.29048069 175.35453338 94.63671875 183.62109375 C95.08660156 184.07613281 95.53648437 184.53117188 96 185 C96.53018277 164.11895552 96.37592837 146.27467803 87 127 C86.67 126.67 86.34 126.34 86 126 C85.796875 124.0390625 85.796875 124.0390625 85.75 121.625 C85.72421875 120.83351563 85.6984375 120.04203125 85.671875 119.2265625 C86.07713359 116.47659348 86.81299056 115.66335929 89 114 C92.40132131 112.96481525 94.19934137 112.64134535 97.4765625 114.109375 C107.41187715 121.55317112 111.32302151 141.37522462 113 153 C113.87474101 168.26754869 114.1336653 183.44697559 109 198 C109.6290625 197.95359375 110.258125 197.9071875 110.90625 197.859375 C117.22285772 197.59301202 121.79029016 198.28566984 127 202 C132.78111729 207.93325195 133.30902455 213.55924758 133.30078125 221.46484375 C133.30506638 222.37577286 133.3093515 223.28670197 133.31376648 224.22523499 C133.31949698 226.14746267 133.32001949 228.06971204 133.31567383 229.99194336 C133.3125145 232.92404363 133.33598672 235.85513375 133.36132812 238.78710938 C133.3636014 240.6588529 133.36430448 242.53059912 133.36328125 244.40234375 C133.37709587 245.71041237 133.37709587 245.71041237 133.39118958 247.04490662 C133.34637573 252.97529577 132.45057923 257.34334934 128.28125 261.86328125 C127.6934375 262.34152344 127.105625 262.81976563 126.5 263.3125 C125.9121875 263.80363281 125.324375 264.29476563 124.71875 264.80078125 C121.70210288 266.90557821 118.89911544 267.15736428 115.33203125 267.31640625 C114.43935547 267.35830078 113.54667969 267.40019531 112.62695312 267.44335938 C111.69818359 267.48267578 110.76941406 267.52199219 109.8125 267.5625 C108.87212891 267.60568359 107.93175781 267.64886719 106.96289062 267.69335938 C104.64209812 267.79938543 102.32106823 267.90019194 100 268 C99.34 270.97 98.68 273.94 98 277 C99.17393311 277.11069824 100.34786621 277.22139648 101.55737305 277.33544922 C105.97294385 277.75284787 110.38802193 278.17527924 114.80297852 278.59912109 C116.70259018 278.78080211 118.60232756 278.96117423 120.50219727 279.14013672 C123.25572417 279.3997529 126.00874267 279.66430107 128.76171875 279.9296875 C129.59144699 280.00686005 130.42117523 280.08403259 131.27604675 280.1635437 C136.15441883 280.63915359 140.98402686 281.2816059 145.82746887 282.03713989 C146.98675305 282.21740282 148.14603724 282.39766575 149.34045124 282.58339119 C150.65692788 282.78961255 150.65692788 282.78961255 152 283 C151.99723462 281.91017413 151.99446924 280.82034826 151.99162006 279.69749737 C151.92509186 253.2087945 151.87575625 226.72010243 151.84456348 200.23133373 C151.82907888 187.42168907 151.80795896 174.61209953 151.77368164 161.80249023 C151.74382803 150.64074379 151.7244366 139.47903724 151.71773452 128.31725198 C151.71381541 122.4043597 151.70457194 116.49158159 151.68280983 110.57872581 C151.66250846 105.01791753 151.65615331 99.45727089 151.66067696 93.89642906 C151.6598489 91.85134504 151.65384563 89.80625583 151.64238358 87.76120377 C151.62753879 84.97696912 151.63101696 82.19335121 151.63923645 79.40910339 C151.63049793 78.59296088 151.6217594 77.77681836 151.61275607 76.93594426 C151.65648286 71.48612881 151.65648286 71.48612881 153.4035902 69.01370716 C155.32240649 67.79527452 156.835447 67.38293489 159.078125 67.0078125 C159.89756592 66.8629541 160.71700684 66.7180957 161.5612793 66.56884766 C162.44855713 66.42237793 163.33583496 66.2759082 164.25 66.125 C166.15797152 65.78358574 168.06551074 65.43974859 169.97265625 65.09375 C170.96410645 64.91585937 171.95555664 64.73796875 172.97705078 64.5546875 C200.63719354 59.58367734 200.63719354 59.58367734 226 48 C222.81948252 44.29338188 219.44664622 42.66444809 214.9375 41.0625 C214.23995605 40.80871582 213.54241211 40.55493164 212.82373047 40.29345703 C202.7490268 36.73047921 192.36433151 34.07260646 181.8984375 31.94140625 C181.07649902 31.77141113 180.25456055 31.60141602 179.40771484 31.42626953 C177.84082775 31.10818923 176.27082691 30.80496525 174.69775391 30.51904297 C171.51777149 29.87984687 169.39424736 29.38019498 167.02734375 27.09765625 C165.46022283 23.89786944 165.562217 21.50226398 166 18 C167.4375 15.5625 167.4375 15.5625 170 14 C177.62871182 13.48161897 184.52341262 14.91695503 191.9375 16.625 C193.12666016 16.89570313 194.31582031 17.16640625 195.54101562 17.4453125 C231.93621693 25.94868025 231.93621693 25.94868025 242 40 C243.21169206 42.42338412 243.12857972 43.95618858 243.13422108 46.66466904 C243.13867892 47.65423528 243.14313676 48.64380153 243.14772969 49.66335464 C243.14745315 51.30602101 243.14745315 51.30602101 243.14717102 52.98187256 C243.15084771 54.13907688 243.1545244 55.29628121 243.1583125 56.48855233 C243.16745069 59.7105033 243.17205152 62.93242433 243.17470181 66.15438604 C243.17860077 69.62553546 243.1881794 73.09667007 243.19691467 76.56781006 C243.21669092 84.95565375 243.22674688 93.34349866 243.23564246 101.73135984 C243.24002357 105.67951179 243.24539085 109.6276624 243.25063133 113.57581329 C243.26764497 126.69733782 243.2821396 139.81886149 243.28938007 152.94039536 C243.29129003 156.34665681 243.29321035 159.75291826 243.29516602 163.15917969 C243.29564976 164.00580942 243.2961335 164.85243915 243.2966319 165.72472432 C243.30493391 179.44255466 243.33027309 193.16029784 243.36274669 206.87809011 C243.3958013 220.95587865 243.41382739 235.03362288 243.41702431 249.11145043 C243.41919093 257.01805794 243.42796155 264.92453836 243.45348549 272.83110809 C243.47517072 279.564194 243.48325372 286.29712197 243.47351871 293.03023884 C243.46896757 296.46597162 243.47090683 299.90137838 243.49028015 303.33706665 C243.50788638 307.06171961 243.50094742 310.78554038 243.48774719 314.51019287 C243.50420106 316.13947491 243.50420106 316.13947491 243.52098733 317.80167174 C243.45943704 324.97459884 242.40963598 328.43000985 237.421875 333.65234375 C221.0244137 346.25693433 198.53698669 350.10463238 178.75 353.875 C177.63197998 354.09043457 176.51395996 354.30586914 175.36206055 354.52783203 C158.80392257 357.52800805 158.80392257 357.52800805 153.78417969 354.79248047 C151.10509742 352.10093395 151.06069973 349.24246905 150.87974548 345.53849792 C150.88196609 344.67912125 150.88418671 343.81974457 150.88647461 342.93432617 C150.88655014 341.95368698 150.88662567 340.97304779 150.88670349 339.96269226 C150.89186478 338.9166835 150.89702606 337.87067474 150.90234375 336.79296875 C150.90446617 335.17217155 150.90446617 335.17217155 150.90663147 333.51863098 C150.9122192 330.07489224 150.9247695 326.63121902 150.9375 323.1875 C150.94251658 320.84961032 150.94707921 318.51171961 150.95117188 316.17382812 C150.96218462 310.44919647 150.97891059 304.72460292 151 299 C149.81026581 298.91576782 149.81026581 298.91576782 148.59649658 298.82983398 C137.54319164 298.03661488 126.52924483 296.86848566 115.50732422 295.72949219 C104.67879375 294.61314884 93.86903981 293.62686172 83 293 C82.42306396 293.93013916 81.84612793 294.86027832 81.25170898 295.81860352 C58.0568072 332.9715964 58.0568072 332.9715964 42 341 C41.71005128 350.13338455 42.8258212 358.96301675 44 368 C46.53221152 368.97739756 49.06762704 369.90555075 51.625 370.8125 C52.33785156 371.09287109 53.05070312 371.37324219 53.78515625 371.66210938 C55.9430112 372.40449067 57.71587344 372.92951613 60 373 C62.54754778 371.66398846 63.95948256 370.11339306 66 368 C71.43434499 364.99680935 77.44403778 365.44443669 83.28198242 366.99047852 C84.81014718 367.44102398 86.33456161 367.90443789 87.85546875 368.37890625 C88.67896317 368.62865707 89.50245758 368.8784079 90.35090637 369.13572693 C92.08632729 369.66568746 93.82001407 370.20135688 95.55200195 370.74243164 C98.15765878 371.55321453 100.77031608 372.33724687 103.38476562 373.11914062 C117.62033561 377.46145205 129.72058046 383.0228225 141 393 C141.91845703 393.77730469 141.91845703 393.77730469 142.85546875 394.5703125 C161.42570304 411.483249 165.0324846 437.16334958 169.25 460.5625 C169.38687225 461.31251282 169.52374451 462.06252563 169.6647644 462.83526611 C170.06032947 465.01517781 170.44573288 467.19664945 170.828125 469.37890625 C171.0540332 470.6532251 171.27994141 471.92754395 171.51269531 473.24047852 C172.87342211 483.73839029 172.87342211 483.73839029 170.3125 487.4375 C167.68716895 489.21137233 166.17398194 489.92258581 163 490 C159.51365399 488.37844371 158.15697806 487.23546708 156 484 C155.45819092 481.87994385 155.45819092 481.87994385 155.04199219 479.39941406 C154.80098785 478.00085175 154.80098785 478.00085175 154.55511475 476.57403564 C154.38739563 475.56476013 154.21967651 474.55548462 154.046875 473.515625 C153.67109672 471.36058568 153.29477633 469.20564084 152.91796875 467.05078125 C152.33458081 463.66888574 151.75610193 460.28635181 151.18798828 456.90185547 C147.48112082 434.9423079 142.8599879 415.05262233 124 401 C117.14268209 396.35817062 110.24551704 393.36852756 102.375 390.875 C101.40949219 390.55402344 100.44398438 390.23304688 99.44921875 389.90234375 C91.07013939 387.17503557 82.56088016 385.06350353 74 383 C73.91024902 383.84780029 73.82049805 384.69560059 73.72802734 385.5690918 C70.16958806 418.5145673 65.08293846 451.25715726 50.875 481.5625 C50.58705566 482.20550049 50.29911133 482.84850098 50.00244141 483.51098633 C48.23852339 486.98385194 47.09414942 487.96194837 43.43359375 489.44140625 C39.71092633 490.04702791 38.17244714 489.99410963 35 488 C32.94945247 485.48341894 32.98888381 484.14959748 33.23046875 480.8984375 C34.13272383 476.3276224 35.77175342 472.53367394 37.6875 468.3125 C48.10156895 444.35850728 52.8280786 418.80715195 55.69042969 392.95751953 C56 391 56 391 57 389 C56.31292969 388.86722656 55.62585938 388.73445313 54.91796875 388.59765625 C54.01691406 388.42105469 53.11585938 388.24445313 52.1875 388.0625 C50.84751953 387.80146484 50.84751953 387.80146484 49.48046875 387.53515625 C47 387 47 387 44 386 C43.95875 386.9075 43.9175 387.815 43.875 388.75 C42.06317207 400.84517562 33.88768048 409.07357347 24.9375 416.5625 C20.81861018 418.57812693 18.56271744 418.66232995 14 418 C11.4375 415.9375 11.4375 415.9375 10 413 C10 409.25679823 10.2337299 406.98082573 12.5625 404 C14.00174271 402.8190829 15.44625749 401.64446015 16.90234375 400.484375 C23.47051058 395.05371192 26.96097465 390.11796573 27.92163086 381.48608398 C28.09069489 376.12290957 27.24794847 370.80857964 26.5625 365.5 C26.41490234 364.29601562 26.26730469 363.09203125 26.11523438 361.8515625 C25.75212742 358.89985439 25.38016579 355.94955114 25 353 C24.22309814 353.41967041 23.44619629 353.83934082 22.64575195 354.27172852 C5.22719365 363.56500286 -12.96538995 366.36943124 -32.125 361.1484375 C-38.77585641 359.06156164 -44.80924618 356.17425701 -51 353 C-51.50886833 356.94401804 -51.98972704 360.89042553 -52.4465332 364.84082031 C-52.68253877 366.83311853 -52.93968047 368.82287674 -53.19726562 370.8125 C-54.22502937 379.85682093 -54.0816277 386.80207376 -49.37890625 394.734375 C-40.95557401 404.08155659 -31.48947898 407.55005209 -19.23095703 408.80029297 C-15.12888094 409.29045554 -13.33176398 409.73398325 -10.00390625 412.40234375 C-8 415 -8 415 -7.375 418 C-8.24554784 422.17862962 -9.49631491 423.56887157 -13 426 C-27.29565458 427.84460059 -42.52944409 422.28127827 -53.88671875 413.859375 C-61.66108609 407.21223282 -67.01144066 399.79583338 -70 390 C-70 388.68 -70 387.36 -70 386 C-70.90492188 386.32484375 -70.90492188 386.32484375 -71.828125 386.65625 C-73.02695312 387.07390625 -73.02695312 387.07390625 -74.25 387.5 C-75.43335938 387.91765625 -75.43335938 387.91765625 -76.640625 388.34375 C-79 389 -79 389 -83 389 C-82.67 389.66 -82.34 390.32 -82 391 C-81.70898096 392.86959923 -81.46278112 394.74625223 -81.23828125 396.625 C-77.82147404 423.9613423 -73.10353598 451.61507175 -59.96875 476.17578125 C-58.72318248 479.80701236 -59.16512285 482.29190202 -60 486 C-61.56901634 488.35352451 -62.6733741 488.87641182 -65.3125 489.875 C-69.02100551 490.04748863 -70.85770689 488.94676771 -74 487 C-93.58765638 458.44706054 -96.44556156 416.57572322 -100 383 C-138.91908032 392.33876422 -138.91908032 392.33876422 -166.6875 419.7421875 C-174.57767324 434.29955714 -176.32601184 451.69510836 -178.92724609 467.83911133 C-179.34427447 470.40951828 -179.78014285 472.97616879 -180.21875 475.54296875 C-180.3386731 476.32004684 -180.45859619 477.09712494 -180.58215332 477.89775085 C-181.39939692 482.58999608 -182.52038871 485.52580997 -186 489 C-189.47454134 490.46296477 -190.72080658 490.11275119 -194.25 488.6875 C-197 487 -197 487 -198 485 C-198.28224823 478.84664594 -197.527258 473.16485422 -196.42578125 467.12109375 C-196.26007126 466.19136246 -196.09436127 465.26163116 -195.92362976 464.3037262 C-195.57157681 462.34237928 -195.21586359 460.38168621 -194.85668945 458.42163086 C-194.31892698 455.47274315 -193.80041161 452.52091194 -193.28320312 449.56835938 C-189.71641226 429.65506196 -184.56750359 412.54777039 -171 397 C-170.22076172 396.07767578 -170.22076172 396.07767578 -169.42578125 395.13671875 C-157.44053517 382.00427028 -139.94893753 376.3379419 -123.43505859 371.3503418 C-121.23517294 370.68300218 -119.04157526 369.99721377 -116.84765625 369.31054688 C-115.42482261 368.87647679 -114.00165645 368.44349487 -112.578125 368.01171875 C-111.93522522 367.80866623 -111.29232544 367.60561371 -110.62994385 367.39640808 C-104.6840108 365.63497673 -98.30106387 364.73821101 -92.625 367.75 C-91.65433594 368.23726563 -91.65433594 368.23726563 -90.6640625 368.734375 C-89 370 -89 370 -87 374 C-81.39 372.02 -75.78 370.04 -70 368 C-69.36959536 363.03556346 -68.7591067 358.08521991 -68.23144531 353.11132812 C-68.04037151 351.36828358 -67.81739868 349.62876746 -67.5859375 347.890625 C-67.30389638 344.52702347 -67.1382864 342.11249094 -69.26171875 339.37109375 C-70.55914027 338.24816276 -71.90177394 337.17673143 -73.26953125 336.140625 C-88.15986501 324.46694417 -99.52158017 309.20597233 -109 293 C-136.63744178 295.10274321 -136.63744178 295.10274321 -164.19091797 298.08520508 C-165.15916504 298.20532959 -166.12741211 298.3254541 -167.125 298.44921875 C-167.95257813 298.55580811 -168.78015625 298.66239746 -169.6328125 298.7722168 C-172.10333895 299.00994382 -174.51957337 299.01501348 -177 299 C-176.99000725 300.00478142 -176.99000725 300.00478142 -176.97981262 301.02986145 C-176.9135486 307.98869029 -176.86823652 314.94742981 -176.83520508 321.90649414 C-176.82009937 324.50516397 -176.79961366 327.10380823 -176.77368164 329.70239258 C-176.73737757 333.43316958 -176.72029142 337.16361013 -176.70703125 340.89453125 C-176.69154739 342.06023148 -176.67606354 343.2259317 -176.66011047 344.42695618 C-176.65988388 345.50785019 -176.65965729 346.5887442 -176.65942383 347.70239258 C-176.65276199 348.65503494 -176.64610016 349.60767731 -176.63923645 350.58918762 C-177 353 -177 353 -178.34912109 354.78434753 C-181.71284369 357.26128128 -185.29735521 357.06916182 -189.3137207 356.67382812 C-190.50570068 356.46177734 -191.69768066 356.24972656 -192.92578125 356.03125 C-193.91037323 355.85820847 -193.91037323 355.85820847 -194.91485596 355.68167114 C-197.05000635 355.30076392 -199.18129974 354.90238967 -201.3125 354.5 C-202.40955765 354.2960965 -202.40955765 354.2960965 -203.52877808 354.08807373 C-257.36204355 344.02052727 -257.36204355 344.02052727 -268.14491272 328.33447266 C-269.4031244 324.8994306 -269.30325736 321.51042977 -269.30639648 317.8984375 C-269.31472 317.08497864 -269.32304352 316.27151978 -269.33161926 315.43341064 C-269.35569515 312.74722498 -269.36448711 310.06128207 -269.37109375 307.375 C-269.38005985 305.50699795 -269.38918169 303.63899665 -269.39845276 301.77099609 C-269.41493728 297.85707859 -269.42264226 293.94324661 -269.42553711 290.02929688 C-269.43092936 285.01185397 -269.46864624 279.99521292 -269.51428127 274.97799683 C-269.54400351 271.12098238 -269.55125956 267.26416249 -269.55226326 263.40704346 C-269.55647293 261.55703039 -269.5689371 259.70701713 -269.58978081 257.8571167 C-269.61660404 255.27132833 -269.61189851 252.6874184 -269.59936523 250.1015625 C-269.61419952 249.33676575 -269.62903381 248.57196899 -269.64431763 247.78399658 C-269.591815 243.98485358 -269.30089173 242.326849 -266.68910217 239.48974609 C-263.0211866 237.45774339 -260.9805031 237.89430469 -257 239 C-255.3061676 240.0957489 -255.3061676 240.0957489 -254 242 C-253.74213738 244.55311414 -253.66469963 246.85694506 -253.72631836 249.40551758 C-253.73512527 250.53288582 -253.73512527 250.53288582 -253.74411011 251.68302917 C-253.75776119 253.31510834 -253.77773665 254.94714401 -253.80326653 256.57908058 C-253.84012984 259.16459677 -253.85262217 261.74912118 -253.85731506 264.33488464 C-253.87207543 271.68613798 -253.90718233 279.03645261 -254.0168457 286.38696289 C-254.08218372 290.88429779 -254.09878196 295.37960071 -254.08413887 299.87735558 C-254.08792424 301.58905492 -254.10997469 303.30081687 -254.1508007 305.01203346 C-254.71511841 314.35793399 -254.71511841 314.35793399 -250.83244324 322.35826111 C-248.25109909 323.94128557 -245.86021078 325.02553611 -243 326 C-242.35259857 326.28752136 -241.70519714 326.57504272 -241.03817749 326.87127686 C-225.99516839 333.4276649 -207.19810254 335.77616007 -192 339 C-192 254.19 -192 169.38 -192 82 C-195.96 81.67 -199.92 81.34 -204 81 C-206.15783793 80.65458589 -208.31016221 80.26630101 -210.4453125 79.80078125 C-212.07811157 79.4454834 -212.07811157 79.4454834 -213.74389648 79.08300781 C-214.85966064 78.82874023 -215.9754248 78.57447266 -217.125 78.3125 C-218.29554932 78.04920898 -219.46609863 77.78591797 -220.67211914 77.51464844 C-231.64373717 74.97630909 -242.93027122 72.17298473 -253 67 C-253.00146656 67.74875774 -253.00293312 68.49751549 -253.00444412 69.26896286 C-253.04148006 87.47970992 -253.10045192 105.69026466 -253.18390274 123.90085983 C-253.22372868 132.70734721 -253.25610306 141.51374476 -253.27099609 150.3203125 C-253.28399425 157.99525601 -253.31091169 165.67000218 -253.35461307 173.34483457 C-253.37726946 177.40943973 -253.3929082 181.47380112 -253.39188385 185.53847504 C-253.39113968 189.3635293 -253.40899151 193.18804386 -253.44116783 197.01295853 C-253.44969348 198.41740331 -253.45139869 199.82190844 -253.44580269 201.22636795 C-253.43918253 203.14302225 -253.45940926 205.0597134 -253.48101807 206.97625732 C-253.48470524 208.04922436 -253.48839241 209.12219139 -253.49219131 210.22767258 C-254.12865724 213.70239049 -255.21023511 214.88849676 -258 217 C-261.85292369 217.55041767 -263.99350484 217.73541245 -267.18700409 215.40202904 C-269.63145897 212.16338323 -269.50306084 210.10565038 -269.50793457 206.0675354 C-269.51417453 205.37006364 -269.5204145 204.67259188 -269.52684355 203.95398462 C-269.54279801 201.61692837 -269.53016056 199.28091163 -269.51757812 196.94384766 C-269.52299829 195.26827892 -269.53012035 193.59271496 -269.53881836 191.91716003 C-269.55707014 187.3653677 -269.54997585 182.8139376 -269.53730202 178.26213884 C-269.52718059 173.49899851 -269.53656562 168.73588935 -269.54284668 163.9727478 C-269.550127 155.97135853 -269.54052678 147.97011686 -269.52148438 139.96875 C-269.49972975 130.72101927 -269.50675518 121.47364149 -269.52879 112.22591937 C-269.54695079 104.28607719 -269.54949855 96.3463412 -269.53903532 88.40648496 C-269.53280221 83.66447185 -269.53195944 78.92262453 -269.54518127 74.1806221 C-269.5567485 69.72028685 -269.54869818 65.26040568 -269.52560425 60.8001194 C-269.52032116 59.1642857 -269.52182411 57.52841369 -269.53065491 55.89259529 C-269.54161091 53.65669404 -269.52784826 51.42224121 -269.50793457 49.18643188 C-269.50642647 47.93614511 -269.50491837 46.68585835 -269.50336456 45.3976841 C-268.59704116 39.28004924 -264.73708032 35.2103094 -260.08984375 31.4375 C-222.47715306 5.56559313 -157.94333543 6.40737059 -113.5625 3.3125 C-112.69064056 3.25165222 -111.81878113 3.19080444 -110.92050171 3.12811279 C-89.83659735 1.67701105 -68.7533929 0.8541168 -47.625 0.4375 C-46.07330612 0.40623016 -46.07330612 0.40623016 -44.49026489 0.37432861 C-29.65747506 0.07796147 -14.83559837 -0.21027475 0 0 Z M224.46484375 67.1015625 C216.58382397 70.5053252 208.70594842 73.04513098 200.375 75.125 C199.01169556 75.46845459 199.01169556 75.46845459 197.62084961 75.81884766 C187.47295343 78.27425047 177.28603677 80.0407549 167 82 C167 166.81 167 251.62 167 339 C199.71821713 335.42331395 199.71821713 335.42331395 228 320 C228.09639773 318.63950734 228.12371937 317.27404339 228.12304783 315.91014004 C228.12503888 315.02336651 228.12702993 314.13659299 228.12908131 313.22294754 C228.12616847 312.23755951 228.12325563 311.25217149 228.12025452 310.23692322 C228.12110894 309.19884649 228.12196337 308.16076977 228.12284368 307.09123617 C228.12450159 303.58416313 228.11897205 300.07713706 228.11352539 296.57006836 C228.11324356 294.06748964 228.11340117 291.56491083 228.1139679 289.06233215 C228.11419622 283.65971711 228.11134476 278.25711742 228.10573006 272.85450554 C228.09761732 265.04315202 228.09500007 257.23180434 228.09374207 249.42044706 C228.09155119 236.74831231 228.08489014 224.07618399 228.07543945 211.40405273 C228.06626626 199.09122754 228.05918497 186.77840409 228.05493164 174.46557617 C228.05466892 173.70714202 228.05440619 172.94870787 228.05413551 172.16729086 C228.05283051 168.36260741 228.05156679 164.55792394 228.05032361 160.75324047 C228.03994988 129.16882231 228.02225648 97.58441213 228 66 C226.69217037 65.9335801 226.69217037 65.9335801 224.46484375 67.1015625 Z M-56 153 C-56.53109375 154.01320312 -57.0621875 155.02640625 -57.609375 156.0703125 C-58.32274694 157.42196459 -59.03629817 158.77352207 -59.75 160.125 C-60.09804687 160.79015625 -60.44609375 161.4553125 -60.8046875 162.140625 C-61.15273437 162.79804688 -61.50078125 163.45546875 -61.859375 164.1328125 C-62.17358398 164.72980957 -62.48779297 165.32680664 -62.81152344 165.94189453 C-64.40909003 168.7084283 -66.22791491 171.34187237 -68 174 C-56.45 174 -44.9 174 -33 174 C-35.52644356 171.47355644 -37.92369268 169.16249003 -40.625 166.875 C-44.97455154 163.11521816 -48.98176066 159.05379939 -52.99609375 154.94140625 C-54.65468518 152.88403037 -54.65468518 152.88403037 -56 153 Z M-109 196 C-110.11379361 199.34138083 -110.14050327 201.87444456 -110.16113281 205.39575195 C-110.16609772 206.0400415 -110.17106262 206.68433105 -110.17617798 207.34814453 C-110.19077424 209.47820101 -110.19759777 211.60818299 -110.203125 213.73828125 C-110.2088791 215.22177634 -110.2146368 216.70527142 -110.22039795 218.18876648 C-110.2309011 221.2999201 -110.23674806 224.41104794 -110.24023438 227.5222168 C-110.24571387 231.50012893 -110.26973282 235.47769787 -110.29820633 239.45550251 C-110.31687271 242.52079753 -110.32204045 245.5860106 -110.32357025 248.65135765 C-110.32658893 250.11732036 -110.33459093 251.5832819 -110.34775543 253.04918861 C-110.36489844 255.10507579 -110.36291612 257.1601339 -110.35644531 259.21606445 C-110.36009094 260.38393997 -110.36373657 261.55181549 -110.36749268 262.75508118 C-109.85233151 267.30389612 -108.4122843 270.72011735 -105 273.8125 C-101.65166529 275.80057373 -98.91569619 276.13413734 -95.10473633 276.17700195 C-93.61222099 276.19625481 -93.61222099 276.19625481 -92.08955383 276.21589661 C-91.01457138 276.22328354 -89.93958893 276.23067047 -88.83203125 276.23828125 C-87.16886116 276.25038887 -87.16886116 276.25038887 -85.47209167 276.26274109 C-83.122605 276.27657951 -80.77309825 276.28730274 -78.42358398 276.29516602 C-74.84384625 276.31234953 -71.26503906 276.35623591 -67.68554688 276.40039062 C-65.40104845 276.41052035 -63.11654218 276.41903558 -60.83203125 276.42578125 C-59.76716995 276.44328934 -58.70230865 276.46079742 -57.60517883 276.47883606 C-51.28065878 276.46053042 -46.20817224 275.81777823 -41 272 C-38.74777814 269.25202116 -38.74777814 269.25202116 -37.125 266.125 C-32.82228181 259.14692832 -27.72251574 255.57417191 -20 253 C-10.15058031 252.15734278 -2.7463924 253.52543716 5.6875 258.625 C8.66987828 261.6879831 10.90331588 265.11924236 13.296875 268.65234375 C16.01884836 272.40442171 18.62668847 274.54222949 23 276 C24.64003875 276.10207199 26.28383924 276.14840145 27.92700195 276.16113281 C28.92846756 276.17074036 29.92993317 276.1803479 30.96174622 276.19024658 C32.04300278 276.19449646 33.12425934 276.19874634 34.23828125 276.203125 C35.35180466 276.20882507 36.46532806 276.21452515 37.6125946 276.22039795 C39.97047983 276.22984909 42.32837827 276.23638238 44.6862793 276.24023438 C48.28783308 276.24993357 51.8888147 276.280954 55.49023438 276.3125 C57.78124661 276.31903078 60.07226293 276.32428096 62.36328125 276.328125 C63.43846512 276.3404718 64.51364899 276.3528186 65.62141418 276.36553955 C71.15940974 276.34909904 75.24915932 276.19477386 80 273 C83.80209692 268.8045827 84.12878832 265.1252088 84.16113281 259.60424805 C84.16609772 258.9599585 84.17106262 258.31566895 84.17617798 257.65185547 C84.19077424 255.52179899 84.19759777 253.39181701 84.203125 251.26171875 C84.2088791 249.77822366 84.2146368 248.29472858 84.22039795 246.81123352 C84.2309011 243.7000799 84.23674806 240.58895206 84.24023438 237.4777832 C84.24571387 233.49987107 84.26973282 229.52230213 84.29820633 225.54449749 C84.31687271 222.47920247 84.32204045 219.4139894 84.32357025 216.34864235 C84.32658893 214.88267964 84.33459093 213.4167181 84.34775543 211.95081139 C84.36489844 209.89492421 84.36291612 207.8398661 84.35644531 205.78393555 C84.36009094 204.61606003 84.36373657 203.44818451 84.36749268 202.24491882 C83.94965705 198.55547743 82.91730662 196.16317544 81 193 C75.85501919 189.17424504 71.39970487 188.87463082 65.11222839 188.85955811 C64.41954575 188.85658698 63.72686311 188.85361586 63.01319009 188.8505547 C60.69261902 188.84188462 58.37209965 188.84036089 56.05151367 188.83886719 C54.38742462 188.83423784 52.72333663 188.82921302 51.05924988 188.82382202 C46.53850015 188.81070777 42.01776527 188.80425503 37.4969995 188.79981136 C34.67203748 188.79687922 31.84707951 188.79277416 29.02211952 188.78830719 C20.18174101 188.77463518 11.34137177 188.76496692 2.50098342 188.7611053 C-7.70086626 188.75662435 -17.90258197 188.73907348 -28.10439092 188.7101047 C-35.99241657 188.68848418 -43.88040453 188.67840083 -51.7684595 188.67706418 C-56.47863999 188.67601647 -61.18869449 188.67011582 -65.89884377 188.65224457 C-70.33035425 188.63575737 -74.76164412 188.63361152 -79.19317436 188.64238358 C-80.8173138 188.64315359 -82.44146514 188.63881594 -84.06557465 188.62892532 C-86.28773698 188.61618897 -88.5091199 188.62209111 -90.73127747 188.63250732 C-92.59426342 188.63030748 -92.59426342 188.63030748 -94.49488544 188.6280632 C-100.39737666 189.25439186 -105.17266176 191.28942986 -109 196 Z M-142 214 C-143.76072584 215.76072584 -143.12834784 218.0789629 -143.13894653 220.4239502 C-143.1369223 221.18123413 -143.13489807 221.93851807 -143.1328125 222.71875 C-143.13376923 223.49182495 -143.13472595 224.2648999 -143.13571167 225.06140137 C-143.13639341 226.69897544 -143.13453957 228.33655219 -143.13037109 229.97412109 C-143.12502271 232.48931921 -143.13031626 235.00433873 -143.13671875 237.51953125 C-143.13605797 239.10677123 -143.1347768 240.6940111 -143.1328125 242.28125 C-143.13483673 243.03853394 -143.13686096 243.79581787 -143.13894653 244.5760498 C-143.44453684 248.08015563 -143.44453684 248.08015563 -142 251 C-136.72 251 -131.44 251 -126 251 C-126 238.79 -126 226.58 -126 214 C-131.28 214 -136.56 214 -142 214 Z M100 214 C100 226.21 100 238.42 100 251 C105.28 251 110.56 251 116 251 C117.76072584 249.23927416 117.12834784 246.9210371 117.13894653 244.5760498 C117.1369223 243.81876587 117.13489807 243.06148193 117.1328125 242.28125 C117.13376923 241.50817505 117.13472595 240.7351001 117.13571167 239.93859863 C117.13639341 238.30102456 117.13453957 236.66344781 117.13037109 235.02587891 C117.12502271 232.51068079 117.13031626 229.99566127 117.13671875 227.48046875 C117.13605797 225.89322877 117.1347768 224.3059889 117.1328125 222.71875 C117.13483673 221.96146606 117.13686096 221.20418213 117.13894653 220.4239502 C117.44453684 216.91984437 117.44453684 216.91984437 116 214 C110.72 214 105.44 214 100 214 Z M-23.703125 273.48828125 C-24.46882813 274.88626953 -24.46882813 274.88626953 -25.25 276.3125 C-30.45837732 284.8465728 -37.51218833 288.54968235 -47 291 C-50.43187726 291.42101334 -53.82997203 291.48702594 -57.28515625 291.51171875 C-58.69769936 291.53864555 -58.69769936 291.53864555 -60.13877869 291.56611633 C-63.11330842 291.61981099 -66.08768153 291.65398296 -69.0625 291.6875 C-71.09312057 291.72070919 -73.12372057 291.75520213 -75.15429688 291.79101562 C-80.10275078 291.87551356 -85.05116154 291.94251814 -90 292 C-86.18321274 298.24978791 -82.42417435 304.17517134 -77.3125 309.4375 C-76.80122559 309.97479736 -76.28995117 310.51209473 -75.76318359 311.06567383 C-74.70389221 312.1737633 -73.64010793 313.27757592 -72.57177734 314.37695312 C-71.04833302 315.95009042 -69.54858068 317.5431059 -68.05078125 319.140625 C-53.36844263 334.57943071 -34.49890685 347.13159511 -12.625 348.4375 C13.39701507 347.25036428 34.20120745 328.12578264 51.03613281 310.19726562 C59.20287516 301.85254433 59.20287516 301.85254433 64 292 C62.74977051 291.98541748 61.49954102 291.97083496 60.21142578 291.95581055 C55.53325067 291.89744636 50.85553786 291.82021821 46.17773438 291.73754883 C44.16055861 291.70447773 42.14329426 291.67639148 40.12597656 291.65356445 C37.21120773 291.61968855 34.29723775 291.567359 31.3828125 291.51171875 C30.49385284 291.50532883 29.60489319 291.4989389 28.68899536 291.49235535 C18.27061727 291.25259932 9.35986221 288.62878025 2 281 C0.31281812 278.47306168 -1.15047115 275.94782894 -2.515625 273.234375 C-4.34197934 270.4852311 -6.03531591 269.41047091 -9 268 C-11.02949806 267.53607397 -11.02949806 267.53607397 -13 267.625 C-13.639375 267.61726563 -14.27875 267.60953125 -14.9375 267.6015625 C-18.96188777 268.37900105 -21.40377183 270.12890518 -23.703125 273.48828125 Z " fill="#000000" transform="translate(269,11)"/>
<path d="M0 0 C2.0133653 1.31306433 4.01231606 2.64837492 6 4 C12.54291164 6.2445666 18.51054023 6.51042931 25 4 C26.010625 3.29875 27.02125 2.5975 28.0625 1.875 C32.14029071 -0.72784513 34.21727772 -0.61712546 39 0 C41.5 1.5625 41.5 1.5625 43 4 C43.68518128 8.18721894 43.61074382 10.14495865 41.125 13.625 C31.51714878 20.92696693 20.88037975 24.04861617 8.8125 22.4375 C1.03829535 20.83329904 -7.2506775 17.6490515 -12 11 C-12.62491523 7.04220351 -12.61006839 4.99136114 -10.5 1.5625 C-7.03162567 -0.60523395 -3.92583326 -0.78209959 0 0 Z " fill="#000000" transform="translate(241,311)"/>
</svg>
