<?xml version="1.0" encoding="UTF-8"?>
<svg version="1.1" xmlns="http://www.w3.org/2000/svg" width="512" height="512">
<path d="M0 0 C0.846194 -0.00671722 1.692388 -0.01343445 2.56422424 -0.02035522 C5.35562041 -0.03931894 8.14677588 -0.04325872 10.93823242 -0.04541016 C12.88490395 -0.05183963 14.83157451 -0.05856811 16.77824402 -0.06558228 C20.85771931 -0.07755127 24.93710995 -0.08126353 29.01660156 -0.08007812 C34.23192108 -0.07987506 39.44669495 -0.10716656 44.66188526 -0.14162254 C48.68290171 -0.16391301 52.70378734 -0.16791499 56.72485924 -0.16685867 C58.64690721 -0.1692118 60.56895894 -0.17801902 62.49094582 -0.19352341 C65.18575323 -0.2132252 67.87939055 -0.20732897 70.57421875 -0.1953125 C71.36046631 -0.20655151 72.14671387 -0.21779053 72.95678711 -0.22937012 C79.36098249 -0.15718063 84.4541752 1.77979498 89.40356445 5.88500977 C93.1136647 10.47104661 95.81076354 15.29137433 98.35620117 20.60302734 C98.75838867 21.41320312 99.16057617 22.22337891 99.57495117 23.05810547 C102.48120117 28.99417052 102.48120117 28.99417052 102.48120117 31.29052734 C103.03281827 31.28684017 103.58443537 31.283153 104.15276814 31.2793541 C117.61737701 31.1907526 131.08193433 31.12495251 144.54677296 31.08327866 C151.05847384 31.06244479 157.56996358 31.03420344 164.08154297 30.98876953 C170.37095388 30.94516269 176.66016228 30.92135867 182.94971275 30.91101837 C185.34377923 30.90365367 187.73783519 30.88927234 190.13181496 30.86760712 C193.49697045 30.83837666 196.86129956 30.83457964 200.2265625 30.83642578 C201.20624496 30.82204468 202.18592743 30.80766357 203.19529724 30.79284668 C214.73633431 30.86091774 224.99639247 35.22409339 233.41870117 43.10302734 C243.90637097 54.31398472 245.82856412 66.53168192 245.60620117 81.35302734 C245.59717773 82.50480469 245.5881543 83.65658203 245.57885742 84.84326172 C245.55548831 87.65923928 245.52272682 90.47476893 245.48120117 93.29052734 C246.7831543 93.24412109 248.08510742 93.19771484 249.42651367 93.14990234 C251.15305313 93.11236888 252.87961753 93.07597041 254.60620117 93.04052734 C255.46213867 93.00701172 256.31807617 92.97349609 257.19995117 92.93896484 C263.7521238 92.83816219 267.28114599 94.25009487 272.12573242 98.85302734 C276.503492 104.24103913 276.63329104 108.28567366 276.65820312 115.05322266 C276.66477432 115.83099564 276.67134552 116.60876862 276.67811584 117.41011047 C276.69779773 119.9796255 276.70950029 122.5490822 276.71948242 125.11865234 C276.72355795 125.9986364 276.72763348 126.87862045 276.7318325 127.78527069 C276.75267189 132.44343326 276.76698258 137.10156656 276.77636719 141.75976562 C276.78742464 146.55920634 276.82182291 151.35818256 276.86153889 156.15745926 C276.88774259 159.85848831 276.89606237 163.55940729 276.89964867 167.26052094 C276.90450524 169.02907192 276.91609265 170.79761829 276.93468666 172.56607819 C276.95915784 175.04783978 276.95809894 177.52840742 276.95117188 180.01025391 C276.97038696 181.09379906 276.97038696 181.09379906 276.98999023 182.19923401 C276.92382954 188.74271403 274.75102545 194.02070306 270.10620117 198.66552734 C264.51357921 202.12762665 259.49012632 202.56560153 253.10620117 202.41552734 C252.37014648 202.40650391 251.6340918 202.39748047 250.87573242 202.38818359 C249.07741237 202.36482879 247.27926206 202.3289657 245.48120117 202.29052734 C245.49691162 202.9547168 245.51262207 203.61890625 245.52880859 204.30322266 C245.90932042 222.81825398 245.96217309 238.15393031 232.85620117 252.54052734 C222.3447914 262.48810671 209.75029361 264.61191983 195.88745117 264.48583984 C194.83396484 264.48382568 193.78047852 264.48181152 192.69506836 264.47973633 C188.79040115 264.46933662 184.88579641 264.44141442 180.98120117 264.41552734 C172.23620117 264.37427734 163.49120117 264.33302734 154.48120117 264.29052734 C154.81120117 287.39052734 155.14120117 310.49052734 155.48120117 334.29052734 C159.11120117 330.66052734 162.74120117 327.03052734 166.48120117 323.29052734 C179.22222021 314.23024714 190.91006766 311.2077159 206.48120117 312.29052734 C218.78891756 314.6810383 229.54001727 320.49701186 237.48120117 330.29052734 C242.30871082 337.98655722 243.25997518 345.27899959 242.48120117 354.29052734 C239.53127938 366.69441537 228.92795414 374.99928967 220.24438477 383.7043457 C219.12142229 384.83358661 217.99864509 385.96301178 216.8760376 387.09260559 C213.21411705 390.77539941 209.54701555 394.4530121 205.87963867 398.13037109 C204.6097769 399.40428625 203.33994702 400.67823321 202.07014847 401.95221138 C196.10277934 407.9385929 190.13302753 413.92258571 184.16032541 419.90364641 C177.29740136 426.7763377 170.44283592 433.65722624 163.59526193 440.54521078 C158.27975917 445.89098926 152.95649301 451.22895837 147.62748206 456.56127077 C144.45486358 459.73622591 141.28555311 462.91431589 138.12446213 466.10075188 C135.14717576 469.1015267 132.16025901 472.09238643 129.16611481 475.07633781 C128.07797127 476.16399096 126.99315092 477.25498235 125.91221237 478.3497963 C116.65526245 487.71874547 106.61020661 495.76400491 94.66870117 501.54052734 C93.67930542 502.02610107 93.67930542 502.02610107 92.66992188 502.52148438 C67.02528231 514.69912346 35.30274319 516.78332998 8.48120117 507.29052734 C-0.73504056 503.82071402 -9.2685741 499.66853324 -17.51879883 494.29052734 C-17.74128296 495.33466797 -17.74128296 495.33466797 -17.96826172 496.39990234 C-19.56916628 503.53333428 -22.56869151 507.15956111 -28.51879883 511.29052734 C-31.20573194 512.6339939 -33.28302813 512.42571189 -36.29289246 512.43769836 C-37.52240631 512.44485367 -38.75192017 512.45200897 -40.01869202 512.4593811 C-41.38876318 512.46222152 -42.75883461 512.46493323 -44.12890625 512.4675293 C-45.56610275 512.47379313 -47.00329763 512.48043985 -48.44049072 512.48744202 C-52.35186894 512.50486188 -56.26323492 512.51540698 -60.17464232 512.52364755 C-62.6186766 512.52879681 -65.06270707 512.53487265 -67.50673866 512.54115868 C-75.15430807 512.5602156 -82.8018678 512.5744443 -90.44945639 512.58277065 C-99.2754687 512.59253858 -108.10122992 512.61884426 -116.92715377 512.65927154 C-123.74932987 512.68944717 -130.57143408 512.70424098 -137.39367563 512.70755166 C-141.46790309 512.70990097 -145.54186247 512.71884533 -149.6160183 512.74401283 C-153.45168257 512.76732338 -157.28690284 512.77151504 -161.12261963 512.76125145 C-162.5274586 512.76075666 -163.93231964 512.7670605 -165.33709145 512.7808075 C-178.55017953 512.90283292 -178.55017953 512.90283292 -184.51879883 508.29052734 C-188.33632012 504.1716228 -189.63784222 501.12715097 -189.66596985 495.56632996 C-189.67312515 494.59483505 -189.68028046 493.62334015 -189.68765259 492.62240601 C-189.69034149 491.55793243 -189.6930304 490.49345886 -189.69580078 489.39672852 C-189.70237198 488.27451401 -189.70894318 487.1522995 -189.7157135 485.99607849 C-189.73545568 482.27521705 -189.7471104 478.55439595 -189.75708008 474.83349609 C-189.76115561 473.56395899 -189.76523113 472.29442188 -189.76943016 470.98641396 C-189.78814192 464.96147723 -189.80270773 458.936565 -189.81104213 452.91160697 C-189.82081378 445.96294109 -189.84713394 439.01459384 -189.88754302 432.06604022 C-189.92136643 426.04270537 -189.93318907 420.01952498 -189.93724632 413.99608803 C-189.94212281 411.43601634 -189.95376681 408.87594831 -189.97228432 406.31593895 C-189.99658231 402.73453655 -189.99572742 399.15396903 -189.98876953 395.57250977 C-190.00157959 394.51410889 -190.01438965 393.45570801 -190.02758789 392.36523438 C-189.98475697 386.32067093 -189.49029451 382.923402 -185.51879883 378.29052734 C-184.90004883 377.54802734 -184.28129883 376.80552734 -183.64379883 376.04052734 C-179.42690078 372.56778778 -174.72872575 372.03908868 -169.40917969 372 C-168.22452621 371.9872403 -167.03987274 371.97448059 -165.81932068 371.96133423 C-164.55354691 371.95910858 -163.28777313 371.95688293 -161.98364258 371.95458984 C-160.67222794 371.94793304 -159.36081329 371.94127625 -158.00965881 371.93441772 C-155.24175724 371.9224821 -152.47398016 371.91873335 -149.70605469 371.91992188 C-146.16626327 371.92012555 -142.62727032 371.89275817 -139.08766842 371.85837746 C-135.69881434 371.83075726 -132.31010775 371.83195985 -128.92114258 371.82958984 C-127.65334457 371.81521881 -126.38554657 371.80084778 -125.07933044 371.78604126 C-123.89782913 371.79219452 -122.71632782 371.79834778 -121.49902344 371.8046875 C-119.94398354 371.80041245 -119.94398354 371.80041245 -118.35752869 371.79605103 C-114.77760166 372.41963595 -113.10540359 373.78743125 -110.51879883 376.29052734 C-109.05583405 379.76506868 -109.40604764 381.01133393 -110.83129883 384.54052734 C-112.51879883 387.29052734 -112.51879883 387.29052734 -114.51879883 388.29052734 C-116.36661425 388.41022796 -118.21859243 388.46779694 -120.07006836 388.49584961 C-121.24738525 388.51603149 -122.42470215 388.53621338 -123.63769531 388.55700684 C-124.8797876 388.57348267 -126.12187988 388.5899585 -127.40161133 388.60693359 C-128.53977295 388.62558472 -129.67793457 388.64423584 -130.85058594 388.66345215 C-135.11490892 388.7319115 -139.37936363 388.79195681 -143.64379883 388.85302734 C-153.17254883 388.99740234 -162.70129883 389.14177734 -172.51879883 389.29052734 C-172.84879883 424.60052734 -173.17879883 459.91052734 -173.51879883 496.29052734 C-127.97879883 495.96052734 -82.43879883 495.63052734 -35.51879883 495.29052734 C-35.51879883 460.31052734 -35.51879883 425.33052734 -35.51879883 389.29052734 C-52.34879883 388.96052734 -69.17879883 388.63052734 -86.51879883 388.29052734 C-90.51879883 384.29052734 -90.51879883 384.29052734 -91.08520508 382.29052734 C-91.08391602 381.63052734 -91.08262695 380.97052734 -91.08129883 380.29052734 C-91.11416992 379.30052734 -91.11416992 379.30052734 -91.14770508 378.29052734 C-90.51879883 376.29052734 -90.51879883 376.29052734 -85.51879883 372.29052734 C-78.91879883 372.29052734 -72.31879883 372.29052734 -65.51879883 372.29052734 C-65.51879883 336.65052734 -65.51879883 301.01052734 -65.51879883 264.29052734 C-88.62873098 264.44838028 -88.62873098 264.44838028 -111.73828125 264.65087891 C-116.24987793 264.66894531 -116.24987793 264.66894531 -118.37471008 264.67230225 C-119.83085549 264.67836799 -121.28698327 264.69227341 -122.74299622 264.71282959 C-136.38804492 264.89551957 -148.60795791 263.14352793 -159.51879883 254.29052734 C-160.14399414 253.78908203 -160.76918945 253.28763672 -161.41333008 252.77099609 C-168.57724043 246.35625284 -173.09283609 236.74563802 -174.51879883 227.29052734 C-174.74373453 222.95278628 -174.70845612 218.63251303 -174.64379883 214.29052734 C-174.63477539 213.13423828 -174.62575195 211.97794922 -174.61645508 210.78662109 C-174.59304805 207.95437087 -174.56025878 205.12256115 -174.51879883 202.29052734 C-175.58098633 202.32533203 -176.64317383 202.36013672 -177.73754883 202.39599609 C-194.62570104 202.79129745 -194.62570104 202.79129745 -200.03051758 197.93115234 C-204.90457962 192.51242435 -205.81747701 187.46104432 -205.79345703 180.3984375 C-205.80112343 179.22914955 -205.80112343 179.22914955 -205.8089447 178.03623962 C-205.82280922 175.46727757 -205.82188616 172.89858479 -205.81958008 170.32958984 C-205.82346903 168.53746441 -205.82780412 166.74533989 -205.83256531 164.95321655 C-205.84002098 161.19908662 -205.83974119 157.44505074 -205.83447266 153.69091797 C-205.8286821 148.89034588 -205.84560213 144.09016012 -205.86881733 139.28965187 C-205.88358135 135.58865118 -205.88442268 131.88774292 -205.8813076 128.18671799 C-205.88181958 126.41736461 -205.88703403 124.64800589 -205.89711952 122.87868118 C-205.9095171 120.39933762 -205.9026725 117.92073875 -205.89111328 115.44140625 C-205.89875702 114.71701859 -205.90640076 113.99263092 -205.91427612 113.24629211 C-205.85523448 107.48932952 -204.67142102 102.69724525 -200.76489258 98.32958984 C-199.86963867 97.62962891 -199.86963867 97.62962891 -198.95629883 96.91552734 C-198.35688477 96.43341797 -197.7574707 95.95130859 -197.13989258 95.45458984 C-194.32378566 93.4324215 -192.58618745 93.17007809 -189.16723633 93.19287109 C-188.31645508 93.19609375 -187.46567383 93.19931641 -186.58911133 93.20263672 C-185.6996582 93.21101563 -184.81020508 93.21939453 -183.89379883 93.22802734 C-182.99661133 93.23253906 -182.09942383 93.23705078 -181.17504883 93.24169922 C-178.95623234 93.25350143 -176.73754864 93.26996579 -174.51879883 93.29052734 C-174.53450928 92.59080811 -174.55021973 91.89108887 -174.56640625 91.17016602 C-174.62952213 87.93953839 -174.66802963 84.70904116 -174.70629883 81.47802734 C-174.73143555 80.3778125 -174.75657227 79.27759766 -174.7824707 78.14404297 C-174.9059285 64.1933117 -171.03681582 52.49385062 -161.53051758 42.14208984 C-152.93429374 34.23022557 -142.52275719 30.81558669 -131.03051758 30.85693359 C-129.73208672 30.84907082 -129.73208672 30.84907082 -128.40742493 30.84104919 C-126.59486965 30.83467478 -124.78227275 30.83590596 -122.96972656 30.84448242 C-120.19563179 30.85306033 -117.42355377 30.82406043 -114.6496582 30.79248047 C-112.88077861 30.79086984 -111.11189538 30.79144333 -109.34301758 30.79443359 C-108.51694504 30.78319962 -107.6908725 30.77196564 -106.83976746 30.76039124 C-103.06476002 30.8062942 -101.12794938 30.85250307 -97.99853516 33.1027832 C-95.82333285 36.31875216 -95.97744888 38.50107773 -96.51879883 42.29052734 C-98.73742912 45.19769807 -100.03824811 46.13034377 -103.51879883 47.29052734 C-106.08200716 47.39663522 -108.6230088 47.45158284 -111.18676758 47.46630859 C-112.73560909 47.48952016 -114.28443724 47.51363802 -115.83325195 47.53857422 C-118.26441224 47.57356022 -120.69508444 47.60296512 -123.12646484 47.61645508 C-135.42456721 47.51341453 -135.42456721 47.51341453 -146.51879883 52.29052734 C-147.40567383 52.84740234 -148.29254883 53.40427734 -149.20629883 53.97802734 C-155.69938007 60.47110858 -157.6355795 67.75337996 -157.65924072 76.71563721 C-157.66495087 78.01369797 -157.67066101 79.31175873 -157.67654419 80.64915466 C-157.6777894 82.0807189 -157.67891453 83.51228324 -157.67993164 84.94384766 C-157.68456289 86.4570579 -157.68958796 87.97026699 -157.69497681 89.48347473 C-157.70807349 93.58902348 -157.71454045 97.6945559 -157.71898746 101.80012226 C-157.72192267 104.36764303 -157.72602833 106.93515938 -157.73049164 109.50267792 C-157.74415953 117.54322102 -157.75382958 125.58375396 -157.75769353 133.62430787 C-157.76217233 142.89225502 -157.77971492 152.16005455 -157.80869412 161.42795682 C-157.83034104 168.60096577 -157.84039942 175.77393327 -157.84173465 182.94697452 C-157.84278054 187.22684585 -157.84864231 191.50657828 -157.86655426 195.7864151 C-157.88308705 199.81495073 -157.88516534 203.84324381 -157.87641525 207.87180138 C-157.87564765 209.34513437 -157.87995088 210.81848069 -157.8898735 212.29178047 C-157.96067214 223.46474978 -157.35182194 232.19984386 -149.48754883 240.56396484 C-144.07853244 245.30758636 -137.86305378 247.40548014 -130.73922729 247.43096924 C-129.30121513 247.43953445 -129.30121513 247.43953445 -127.83415222 247.44827271 C-126.78890884 247.44939056 -125.74366547 247.45050842 -124.66674805 247.45166016 C-123.56056625 247.45662506 -122.45438446 247.46158997 -121.31468201 247.46670532 C-117.6509438 247.48132292 -113.98724892 247.48812919 -110.32348633 247.49365234 C-107.77483113 247.49940521 -105.22617593 247.50516293 -102.67752075 247.51092529 C-98.0128728 247.52009173 -93.34823782 247.52639175 -88.68358314 247.52942204 C-81.83803479 247.53389446 -74.99268694 247.55140607 -68.14719951 247.58042264 C-62.20238315 247.60473833 -56.2576161 247.61237103 -50.31274796 247.6140976 C-47.79227738 247.61711728 -45.27180751 247.62512258 -42.75136948 247.63828278 C-39.21649948 247.65541845 -35.68211196 247.65344411 -32.1472168 247.64697266 C-31.1141188 247.65618744 -30.08102081 247.66540222 -29.01661682 247.67489624 C-17.83836983 247.61108549 -9.71571101 244.94737943 -1.51879883 237.29052734 C0.40242679 235.33357535 2.30359382 233.35802039 4.20654297 231.38330078 C13.19331016 222.10324689 21.20249234 214.68162163 34.82885742 214.19287109 C48.62513559 214.70083421 57.40894673 221.5699094 66.60620117 231.35302734 C74.70092768 239.91610159 81.76268358 246.56668524 94.02199936 247.4797678 C96.95067315 247.55652174 99.87354308 247.57221558 102.80322266 247.56518555 C103.91159485 247.57029648 105.01996704 247.57540741 106.16192627 247.58067322 C109.80877146 247.5945203 113.45542664 247.59361621 117.10229492 247.59130859 C119.64762949 247.59519794 122.19296342 247.59953311 124.73829651 247.60429382 C130.06676609 247.61174536 135.39516652 247.61161145 140.72363281 247.60620117 C146.86419255 247.60016179 153.00452313 247.61247842 159.14504379 247.63377124 C165.07600214 247.65357348 171.00689006 247.65655373 176.93788338 247.65303612 C179.4508016 247.65354838 181.96372357 247.6587682 184.47662163 247.66884804 C187.99452084 247.68122898 191.51189392 247.67441045 195.02978516 247.6628418 C196.57539879 247.6743074 196.57539879 247.6743074 198.15223694 247.68600464 C207.54172147 247.61799744 214.8276803 245.77227406 221.75463867 239.25927734 C227.16837704 233.08614581 228.60412994 226.51368183 228.60717773 218.48999023 C228.60904587 217.81468765 228.610914 217.13938507 228.61283875 216.44361877 C228.61683313 214.98132266 228.6189167 213.51902035 228.61930084 212.05671883 C228.62272691 208.94512355 228.64409914 205.83373527 228.66453171 202.72221279 C228.70250871 196.93318799 228.73381392 191.14438836 228.73168945 185.35522461 C228.73090213 181.32379519 228.75426909 177.29312982 228.79357147 173.26189995 C228.80402628 171.72817864 228.80555924 170.1943691 228.79792023 168.66063118 C228.78828875 166.51306652 228.80949078 164.3678148 228.83764648 162.22045898 C228.84129211 161.00008438 228.84493774 159.77970978 228.84869385 158.52235413 C229.65613347 154.39670228 231.25564151 152.89616231 234.48120117 150.29052734 C236.61401367 149.84521484 236.61401367 149.84521484 238.60620117 150.16552734 C239.60006836 150.28541016 239.60006836 150.28541016 240.61401367 150.40771484 C243.44295656 151.74524851 244.1264725 153.50154664 245.48120117 156.29052734 C245.82177734 159.61206055 245.82177734 159.61206055 245.77416992 163.34130859 C245.76992508 164.0001152 245.76568024 164.65892181 245.76130676 165.33769226 C245.74461313 167.42656619 245.70698175 169.51444874 245.66870117 171.60302734 C245.65364214 173.02553938 245.63995586 174.44806665 245.62768555 175.87060547 C245.5973008 179.34459505 245.53857107 182.8164614 245.48120117 186.29052734 C250.10120117 185.96052734 254.72120117 185.63052734 259.48120117 185.29052734 C259.48120117 160.54052734 259.48120117 135.79052734 259.48120117 110.29052734 C252.55120117 109.79552734 252.55120117 109.79552734 245.48120117 109.29052734 C245.53920898 110.45970703 245.5972168 111.62888672 245.65698242 112.83349609 C245.70389567 114.38163314 245.74939415 115.92981351 245.79370117 117.47802734 C245.8355957 118.24695313 245.87749023 119.01587891 245.9206543 119.80810547 C246.01268854 124.09690098 245.87270146 125.77651676 243.18432617 129.30615234 C240.48120117 131.29052734 240.48120117 131.29052734 236.91870117 131.85302734 C232.89606171 131.19477725 231.95733162 130.44151791 229.48120117 127.29052734 C228.98240662 124.70613098 228.98240662 124.70613098 228.98291016 121.74682617 C228.9728746 120.63499466 228.96283905 119.52316315 228.95249939 118.37763977 C228.96068192 117.17971298 228.96886444 115.98178619 228.97729492 114.74755859 C228.96316307 112.89030403 228.96316307 112.89030403 228.94874573 110.99552917 C228.92489818 107.70268991 228.91644867 104.41034364 228.91784668 101.11743164 C228.91980555 96.49953457 228.91014748 91.88189074 228.87794495 87.26408386 C228.86122466 84.8088276 228.85822678 82.35342778 228.87095642 79.89814758 C228.81247251 70.31769621 227.40749144 61.41167488 220.48120117 54.29052734 C215.50035544 50.5280881 211.09873321 48.1692573 204.76877785 48.15744877 C203.30664232 48.1510872 203.30664232 48.1510872 201.81496871 48.14459711 C200.74154325 48.14498325 199.6681178 48.14536938 198.56216431 48.14576721 C197.42381775 48.14224037 196.2854712 48.13871352 195.11262929 48.1350798 C191.27796301 48.12436 187.44332154 48.12070614 183.60864258 48.11694336 C180.86757639 48.11120213 178.12651482 48.10393419 175.38545227 48.09667969 C169.47269643 48.08173503 163.55994186 48.07019318 157.64717484 48.06073189 C149.0928121 48.04686523 140.53847895 48.02567844 131.98413746 48.00230335 C118.09872557 47.96437577 104.21330834 47.92941268 90.32788086 47.89770508 C89.49650739 47.89580459 88.66513393 47.89390409 87.80856733 47.89194601 C76.00996237 47.86511359 64.21135326 47.84123987 52.41273968 47.81856101 C51.5819726 47.81696371 50.75120551 47.81536641 49.89526367 47.8137207 C49.06550709 47.81212724 48.23575051 47.81053377 47.38084979 47.80889202 C33.55048707 47.78213372 19.72015589 47.74773859 5.88982713 47.70706695 C-2.64375145 47.6822795 -11.17729607 47.66395977 -19.71090497 47.65391134 C-25.55769633 47.64652547 -31.40444211 47.63200698 -37.25120328 47.61184711 C-40.62597375 47.60044596 -44.00060649 47.59340586 -47.37540627 47.59285545 C-51.03229605 47.5917772 -54.68894575 47.57856751 -58.34579468 47.56227112 C-59.94924069 47.5661964 -59.94924069 47.5661964 -61.58507955 47.57020098 C-62.56505206 47.56335219 -63.54502457 47.55650339 -64.55469322 47.54944706 C-65.39870418 47.54771081 -66.24271514 47.54597456 -67.11230218 47.5441857 C-70.81104677 47.1543171 -73.62643989 46.09365039 -76.39379883 43.60302734 C-78.05463638 40.1890835 -77.4383259 37.90295512 -76.51879883 34.29052734 C-74.96094789 32.24917815 -74.11162552 31.39991014 -71.56355286 30.92976379 C-70.8240892 30.93642563 -70.08462555 30.94308746 -69.32275391 30.94995117 C-68.06178642 30.95029106 -68.06178642 30.95029106 -66.77534485 30.95063782 C-65.87212997 30.96612167 -64.9689151 30.98160553 -64.03833008 30.99755859 C-63.11034103 31.00180344 -62.18235199 31.00604828 -61.22624207 31.01042175 C-58.2609664 31.02722072 -55.29636923 31.06487519 -52.33129883 31.10302734 C-50.32154302 31.11807261 -48.31177655 31.13176129 -46.30200195 31.14404297 C-41.37400597 31.17712826 -36.44651745 31.22891901 -31.51879883 31.29052734 C-31.08313599 29.93217773 -31.08313599 29.93217773 -30.63867188 28.54638672 C-29.21624763 24.41090607 -27.34306954 20.66429226 -25.33129883 16.79052734 C-24.9697168 16.05705078 -24.60813477 15.32357422 -24.2355957 14.56787109 C-18.80280819 4.11372921 -11.74302823 -0.0134334 0 0 Z M-6.51879883 17.29052734 C-8.82879883 21.91052734 -11.13879883 26.53052734 -13.51879883 31.29052734 C18.82120117 31.29052734 51.16120117 31.29052734 84.48120117 31.29052734 C83.01886629 26.9035227 82.03122495 24.16582257 79.60620117 20.47802734 C79.1137793 19.70845703 78.62135742 18.93888672 78.11401367 18.14599609 C76.1335736 15.89549602 75.40375468 15.78026506 72.48120117 15.29052734 C70.09348072 15.19249288 67.70319829 15.15232152 65.31347656 15.14526367 C64.5991597 15.14190506 63.88484283 15.13854645 63.14888 15.13508606 C60.79218803 15.12560239 58.43556728 15.12363434 56.07885742 15.12255859 C54.43745393 15.11934452 52.79605072 15.11598034 51.15464783 15.11247253 C47.715722 15.10648796 44.27682129 15.10463198 40.83789062 15.10522461 C36.43513233 15.10532626 32.03253519 15.09166768 27.6298151 15.0744524 C24.24030317 15.0633255 20.85083013 15.0613056 17.4613018 15.06183434 C15.83822511 15.06065551 14.21514738 15.05623918 12.5920887 15.04850197 C10.32071814 15.03868688 8.04969669 15.04158586 5.77832031 15.04760742 C4.48688614 15.0461824 3.19545197 15.04475739 1.86488342 15.04328918 C-1.88893236 15.14593029 -1.88893236 15.14593029 -6.51879883 17.29052734 Z M-188.51879883 109.29052734 C-190.17768622 110.94941473 -189.64442408 112.94737517 -189.65432739 115.16343689 C-189.65230316 115.85957596 -189.65027893 116.55571503 -189.64819336 117.27294922 C-189.64994568 118.00300674 -189.651698 118.73306427 -189.65350342 119.48524475 C-189.65792182 121.90994613 -189.654984 124.33457517 -189.65161133 126.75927734 C-189.65228437 128.43697117 -189.6532544 130.11466491 -189.6545105 131.7923584 C-189.65598745 135.31307908 -189.65383299 138.83377444 -189.64916992 142.35449219 C-189.64347263 146.8776323 -189.64675165 151.40071308 -189.65274239 155.92385101 C-189.65634806 159.3895513 -189.65520938 162.85523741 -189.65261459 166.32093811 C-189.65194534 167.98918159 -189.65277368 169.65742634 -189.65509415 171.32566833 C-189.65762078 173.65318228 -189.65377995 175.98059882 -189.64819336 178.30810547 C-189.65021759 179.00424454 -189.65224182 179.70038361 -189.65432739 180.4176178 C-189.91105515 183.63265974 -189.91105515 183.63265974 -188.51879883 186.29052734 C-183.89879883 186.29052734 -179.27879883 186.29052734 -174.51879883 186.29052734 C-174.51879883 160.88052734 -174.51879883 135.47052734 -174.51879883 109.29052734 C-179.13879883 109.29052734 -183.75879883 109.29052734 -188.51879883 109.29052734 Z M20.46557617 237.85302734 C18.70784734 239.65298389 16.96330955 241.46590279 15.23120117 243.29052734 C13.47804802 245.1050153 11.72291689 246.91759476 9.96557617 248.72802734 C9.19955078 249.53111328 8.43352539 250.33419922 7.64428711 251.16162109 C5.48120117 253.29052734 5.48120117 253.29052734 3.37913513 254.57923889 C1.25115737 256.15786574 1.25115737 256.15786574 0.96894836 258.78831482 C0.96308212 259.78218704 0.95721588 260.77605927 0.95117188 261.80004883 C0.93468094 262.92809433 0.91819 264.05613983 0.90119934 265.21836853 C0.90310776 266.43714188 0.90501617 267.65591522 0.90698242 268.91162109 C0.88573555 270.78878563 0.88573555 270.78878563 0.86405945 272.70387268 C0.82917288 276.03160513 0.81084548 279.35855905 0.80126953 282.68640137 C0.78390152 287.37156266 0.73669752 292.05651292 0.69120789 296.74147034 C0.66871614 299.23550756 0.65289945 301.72961559 0.6443634 304.22373962 C0.63732895 305.35493729 0.63029449 306.48613495 0.62304688 307.65161133 C0.61956741 308.64627914 0.61608795 309.64094696 0.61250305 310.66575623 C0.49425258 313.02962508 0.15494367 315.03038049 -0.51879883 317.29052734 C-5.18346301 318.20516738 -8.28474854 318.65661427 -12.51879883 316.29052734 C-13.75091831 313.82628838 -13.67659791 312.13818071 -13.72412109 309.38183594 C-13.75403893 307.85047501 -13.75403893 307.85047501 -13.78456116 306.28817749 C-13.80127365 305.18293732 -13.81798615 304.07769714 -13.83520508 302.93896484 C-13.85598618 301.80979645 -13.87676727 300.68062805 -13.8981781 299.51724243 C-13.96371218 295.90006763 -14.02257657 292.28281854 -14.08129883 288.66552734 C-14.12448037 286.21760291 -14.16809454 283.76968606 -14.2121582 281.32177734 C-14.32021387 275.31143579 -14.41925897 269.30104018 -14.51879883 263.29052734 C-31.84379883 263.78552734 -31.84379883 263.78552734 -49.51879883 264.29052734 C-49.51879883 299.93052734 -49.51879883 335.57052734 -49.51879883 372.29052734 C-41.10379883 372.78552734 -41.10379883 372.78552734 -32.51879883 373.29052734 C-26.44038979 375.42191753 -23.54406177 377.60303302 -20.51879883 383.29052734 C-19.26883388 387.04042219 -19.40643825 390.5110369 -19.44042969 394.41455078 C-19.44654544 396.13067564 -19.45247222 397.84680117 -19.45823669 399.56292725 C-19.46290892 400.47296257 -19.46758114 401.38299789 -19.47239494 402.32061005 C-19.49155935 407.14133022 -19.47636271 411.96198327 -19.46606445 416.78271484 C-19.45381663 422.91677239 -19.45213041 429.05013272 -19.49462891 435.18408203 C-19.52807114 440.14169858 -19.52256249 445.09793673 -19.49106026 450.05554962 C-19.4861403 451.94213789 -19.49539769 453.82881973 -19.51926994 455.71526337 C-20.01517991 465.77080634 -20.01517991 465.77080634 -16.79518127 474.95774841 C-14.7749476 476.76069919 -12.90378583 478.02751518 -10.51879883 479.29052734 C-9.35746455 480.09518952 -8.20127887 480.90741759 -7.05395508 481.73193359 C-5.90446019 482.4519902 -4.74661554 483.15886816 -3.58129883 483.85302734 C-2.9494165 484.23015869 -2.31753418 484.60729004 -1.66650391 484.99584961 C8.35244445 490.74001404 19.99932982 494.866559 31.48120117 496.29052734 C32.49827148 496.42330078 33.5153418 496.55607422 34.56323242 496.69287109 C53.63973599 498.63322403 72.45331962 494.78701183 89.41870117 485.97802734 C90.0800708 485.63570068 90.74144043 485.29337402 91.42285156 484.94067383 C102.16303222 479.04701474 110.74694802 470.32121761 119.32495117 461.72143555 C120.4754741 460.57526999 121.62641087 459.42951974 122.77772522 458.28414917 C125.8748862 455.20026835 128.96572716 452.11012905 132.05498123 449.01832986 C134.64055164 446.43168383 137.22910552 443.84803343 139.8176012 441.26431531 C145.92085983 435.17211033 152.01882626 429.07464399 158.11352539 422.97387695 C164.39653587 416.68480765 170.68871399 410.40501737 176.98536491 404.1296075 C182.40327918 398.72929736 187.81538149 393.3232108 193.22287178 387.91246289 C196.44772829 384.68579404 199.6747673 381.46138745 202.9074707 378.24257851 C205.94134058 375.22126556 208.96789334 372.19281029 211.98895073 369.15868759 C213.09816245 368.04710721 214.20993856 366.93807898 215.32444954 365.8318119 C216.84541169 364.3212925 218.35682978 362.80181852 219.86621094 361.27973938 C220.7141774 360.43194066 221.56214386 359.58414194 222.43580627 358.71065235 C225.49630737 355.08944686 226.89925036 351.72157385 226.54370117 346.97802734 C225.71472025 341.31646446 222.81738836 337.87022145 218.48120117 334.29052734 C209.95703247 329.02175436 202.46074092 327.41577756 192.48120117 328.29052734 C181.84523275 330.95713834 174.24030222 338.21512695 166.83276367 345.91943359 C165.40090577 347.38144708 163.96860033 348.84302236 162.53588867 350.30419922 C160.31689209 352.57889153 158.10208626 354.85729084 155.89526367 357.14379883 C153.74001888 359.37214745 151.56891237 361.58405295 149.39526367 363.79443359 C148.42757553 364.81024254 148.42757553 364.81024254 147.44033813 365.84657288 C141.99546094 371.35012313 135.38132074 376.14201439 127.46166992 376.95458984 C118.10382521 376.85821657 111.12526284 375.14497005 102.48120117 371.29052734 C90.27882242 367.73950499 76.51574995 369.96258373 65.55151367 375.86865234 C52.25313712 383.86930165 44.96001321 394.49403314 40.48120117 409.29052734 C38.65273332 417.06151571 39.53929817 424.02305277 41.02416992 431.73583984 C42.31443559 438.94809411 42.31443559 438.94809411 40.35620117 442.10302734 C37.7215889 443.77161511 35.58016752 444.10079471 32.48120117 444.29052734 C30.39526367 443.59130859 30.39526367 443.59130859 28.48120117 442.29052734 C22.25767074 429.36288497 23.41179937 412.31404259 27.48120117 399.02490234 C34.01257011 380.89175964 45.32679488 368.63643512 62.48120117 360.29052734 C79.11592509 353.20536716 97.49992491 353.09496184 114.48120117 359.29052734 C115.17600586 359.65275391 115.87081055 360.01498047 116.58666992 360.38818359 C120.41154561 362.20992851 124.38690475 362.11796749 128.48120117 361.29052734 C131.57713235 359.32737893 134.00277432 356.97548977 136.48120117 354.29052734 C137.14120117 353.63052734 137.80120117 352.97052734 138.48120117 352.29052734 C138.66933938 349.48903221 138.73295127 346.78716732 138.70825195 343.98535156 C138.70854401 343.1267453 138.70883606 342.26813904 138.70913696 341.3835144 C138.7077404 338.53731277 138.6921639 335.69137091 138.67651367 332.84521484 C138.6727847 330.87509301 138.66993718 328.90496932 138.66793823 326.93484497 C138.66029264 321.74309186 138.64063621 316.55145021 138.61853027 311.35974121 C138.59809177 306.06454984 138.58894079 300.76934051 138.57885742 295.47412109 C138.55739117 285.07953293 138.5222015 274.68505683 138.48120117 264.29052734 C126.93120117 264.29052734 115.38120117 264.29052734 103.48120117 264.29052734 C103.44381836 267.86509766 103.40643555 271.43966797 103.36791992 275.12255859 C103.3217324 278.57778101 103.27048855 282.03289389 103.21875 285.48803711 C103.18545941 287.89259202 103.1574405 290.29722585 103.13476562 292.7019043 C103.10129607 296.15496513 103.0489832 299.60729995 102.99291992 303.06005859 C102.98653 304.1382637 102.98014008 305.21646881 102.97355652 306.3273468 C102.94386528 307.82856331 102.94386528 307.82856331 102.91357422 309.36010742 C102.89691963 310.68248161 102.89691963 310.68248161 102.87992859 312.03157043 C102.39899213 314.75627583 101.64973533 315.62336761 99.48120117 317.29052734 C97.10620117 318.16552734 97.10620117 318.16552734 94.48120117 318.29052734 C89.88418625 316.09649749 89.88418625 316.09649749 88.48120117 313.29052734 C88.36263481 311.68781754 88.30413993 310.08047381 88.27587891 308.47363281 C88.25593369 307.47274628 88.23598846 306.47185974 88.21543884 305.44064331 C88.1903701 303.81559372 88.1903701 303.81559372 88.16479492 302.15771484 C88.14401382 301.05074249 88.12323273 299.94377014 88.1018219 298.80325317 C88.03629126 295.25740936 87.97742503 291.7114898 87.91870117 288.16552734 C87.8755193 285.76577984 87.83190513 283.36604007 87.7878418 280.96630859 C87.6806063 275.07446222 87.57884645 269.18254004 87.48120117 263.29052734 C86.67948486 263.03730713 85.87776855 262.78408691 85.05175781 262.52319336 C72.75037099 258.54884181 64.39416786 252.74026092 55.59838867 243.45068359 C54.8997168 242.73783203 54.20104492 242.02498047 53.48120117 241.29052734 C53.15120117 241.29052734 52.82120117 241.29052734 52.48120117 241.29052734 C52.47240181 242.65235893 52.47240181 242.65235893 52.46342468 244.04170227 C52.4055594 252.59102263 52.33351837 261.14008001 52.24548626 269.68914509 C52.200728 274.08449285 52.16148411 278.47974676 52.13476562 282.87524414 C52.10878678 287.11589334 52.06842341 291.35618239 52.01801491 295.59660912 C52.00130937 297.2157055 51.98981809 298.83486423 51.98358727 300.45403481 C51.97398587 302.71933517 51.94597631 304.98370648 51.91357422 307.2487793 C51.90247116 308.53895462 51.8913681 309.82912994 51.87992859 311.15840149 C51.48120117 314.29052734 51.48120117 314.29052734 50.10261536 316.1759491 C47.82899108 317.73886386 46.24327884 318.15899984 43.48120117 318.29052734 C38.88418625 316.09649749 38.88418625 316.09649749 37.48120117 313.29052734 C37.35882363 310.66728816 37.29552363 308.06884003 37.27587891 305.44433594 C37.26597931 304.63449753 37.25607971 303.82465912 37.24588013 302.99028015 C37.21422718 300.30653838 37.18949273 297.6227789 37.16479492 294.93896484 C37.14422867 293.08093804 37.12323229 291.22291595 37.1018219 289.36489868 C37.04656727 284.46915499 36.99717296 279.57336884 36.94897461 274.67755127 C36.89878432 269.68392142 36.84308537 264.6903534 36.7878418 259.69677734 C36.68021876 249.8947468 36.578783 240.09266263 36.48120117 230.29052734 C29.49851672 230.29052734 25.31470726 233.13355217 20.46557617 237.85302734 Z " fill="#000000" transform="translate(220.518798828125,-0.29052734375)"/>
<path d="M0 0 C1.67334213 -0.00269867 3.34668273 -0.00658421 5.02001953 -0.01159668 C8.51675434 -0.01747412 12.01307875 -0.00898586 15.50976562 0.00976562 C19.97515537 0.03255445 24.43958323 0.01942188 28.90493774 -0.00452423 C32.35725046 -0.01903 35.80933794 -0.01435446 39.26165771 -0.00401306 C40.90737016 -0.00135895 42.55310355 -0.00456889 44.1987915 -0.01393127 C53.68334814 -0.05605765 61.08465692 -0.04186968 68.86328125 6.1015625 C73.81117533 11.91059449 76.34335329 18.45887723 75.8125 26.15625 C74.63122083 33.2066215 71.66544 38.84135699 65.91186523 43.18392944 C57.90054473 48.48315917 48.67534896 47.97421466 39.4375 47.9296875 C37.94734556 47.93171298 36.4571921 47.93462834 34.96704102 47.93838501 C31.85716229 47.94278613 28.7475436 47.93644932 25.63769531 47.92236328 C21.67364293 47.90527246 17.71020013 47.91512562 13.74617004 47.93308067 C10.67300923 47.94397878 7.5999903 47.94044475 4.52682495 47.9326973 C3.06615118 47.93071189 1.60546406 47.93309547 0.14480591 47.94013596 C-11.04701125 47.98225739 -20.06878836 47.39281891 -28.46484375 39.4140625 C-32.87045581 34.41758012 -34.28468775 28.05715585 -34.125 21.53125 C-33.05765745 14.7645055 -30.59295581 8.84975341 -25.125 4.53125 C-17.3290247 -0.74002341 -9.0457131 -0.05146143 0 0 Z M-17.125 20.53125 C-18.20142709 22.41975355 -18.20142709 22.41975355 -18.125 24.53125 C-16.42185691 28.29609262 -14.9624215 30.06739533 -11.125 31.53125 C-8.16958317 31.84068041 -8.16958317 31.84068041 -4.87524414 31.8059082 C-3.6103566 31.81544022 -2.34546906 31.82497223 -1.04225159 31.83479309 C0.33511381 31.83453165 1.71247922 31.83359455 3.08984375 31.83203125 C4.50704575 31.83592005 5.92424659 31.84025511 7.34144592 31.84501648 C10.30961894 31.85247141 13.277673 31.85219274 16.24584961 31.84692383 C20.04338936 31.84113009 23.84044124 31.85806086 27.63790035 31.8812685 C30.56420218 31.89602373 33.49038699 31.89687514 36.41671944 31.89375877 C37.81651335 31.89427109 39.21631397 31.89949203 40.6160717 31.90957069 C42.57595959 31.921951 44.53594626 31.91319178 46.49584961 31.90356445 C48.16652748 31.90450859 48.16652748 31.90450859 49.87095642 31.9054718 C53.26976995 31.48207244 55.13575951 30.55444725 57.875 28.53125 C59.53890749 26.28816443 59.53890749 26.28816443 59.875 23.53125 C58.32983351 19.21799869 58.32983351 19.21799869 54.875 16.53125 C52.74188587 16.41893609 50.60523427 16.37189561 48.46923828 16.35424805 C47.48357376 16.34439125 47.48357376 16.34439125 46.47799683 16.33433533 C44.30043426 16.31460218 42.12294062 16.30294047 39.9453125 16.29296875 C39.20192501 16.28889322 38.45853752 16.2848177 37.69262314 16.28061867 C33.75878934 16.25975893 29.82499043 16.24545622 25.89111328 16.23608398 C21.82656167 16.22501306 17.76255657 16.19060577 13.69819832 16.15091228 C10.57379126 16.12477855 7.44951514 16.11639514 4.32500839 16.11280251 C2.82667215 16.10792893 1.32834206 16.09629291 -0.16988754 16.07776451 C-2.2671834 16.05343762 -4.36305573 16.05432497 -6.46044922 16.0612793 C-7.65354706 16.05541306 -8.8466449 16.04954681 -10.07589722 16.04350281 C-13.73551243 16.62891011 -14.86891216 17.65735544 -17.125 20.53125 Z " fill="#000000" transform="translate(235.125,61.46875)"/>
<path d="M0 0 C2.375 1.0625 2.375 1.0625 4 3 C5 6.3125 5 6.3125 5 10 C2.08907921 15.17517269 -1.84104599 19.13297592 -6.03125 23.296875 C-6.70418091 23.97171936 -7.37711182 24.64656372 -8.07043457 25.34185791 C-9.48671972 26.75949801 -10.90550949 28.17463985 -12.32666016 29.58740234 C-14.50007078 31.75007043 -16.66256509 33.92324368 -18.82421875 36.09765625 C-20.20508807 37.47720451 -21.58657738 38.85613253 -22.96875 40.234375 C-23.6136438 40.88331726 -24.2585376 41.53225952 -24.92297363 42.2008667 C-25.83411926 43.10255585 -25.83411926 43.10255585 -26.76367188 44.02246094 C-27.29343628 44.55063416 -27.82320068 45.07880737 -28.36901855 45.62298584 C-31.41079329 48.19111247 -33.36503057 49.00848154 -37.38134766 48.95483398 C-41.6780021 47.8210993 -43.93329898 45.85769587 -46.8984375 42.72265625 C-47.41886627 42.19610947 -47.93929504 41.66956268 -48.47549438 41.12705994 C-50.12327469 39.45248054 -51.74871414 37.75793313 -53.375 36.0625 C-54.48954387 34.92641671 -55.60541738 33.79163623 -56.72265625 32.65820312 C-65.87842268 23.31303507 -65.87842268 23.31303507 -66.3125 18.625 C-66 15 -66 15 -64.4375 12.5625 C-60.90550465 10.29840042 -59.13858566 10.2412593 -55 11 C-51.97080906 12.9711783 -49.53508871 15.43789435 -47 18 C-46.09894531 18.88816406 -45.19789062 19.77632813 -44.26953125 20.69140625 C-41.82906465 23.1112201 -39.40782629 25.54776708 -37 28 C-30.87067696 22.94247115 -25.32512266 17.4066303 -19.75 11.75 C-17.97629885 9.95081463 -16.20035865 8.15383305 -14.421875 6.359375 C-13.25543457 5.17553223 -13.25543457 5.17553223 -12.06542969 3.96777344 C-8.00610081 0.100375 -5.54006837 -0.48597091 0 0 Z " fill="#000000" transform="translate(147,418)"/>
</svg>
